<svg xmlns="http://www.w3.org/2000/svg" width="54" height="54" viewBox="0 0 54 54">
  <g fill="none" fill-rule="evenodd">
    <circle cx="24.694" cy="25.892" r="16" fill="#DAD09F" fill-rule="nonzero" opacity=".234"/>
    <circle cx="24.694" cy="25.892" r="13.5" fill="#DAD09F" fill-rule="nonzero" opacity=".438"/>
    <circle cx="24.694" cy="25.892" r="10" fill="#DAD09F" fill-rule="nonzero"/>
    <circle cx="44.784" cy="42.425" r="2.5" fill="#D1C58B" fill-rule="nonzero"/>
    <path fill="#E84046" fill-rule="nonzero" d="M41.8975491,39.6562665 C41.888217,39.6684584 41.8786695,39.6805496 41.8689062,39.6925355 C37.7424327,44.7583934 31.5691254,47.7578707 24.9074488,47.7578707 C12.8312137,47.7578707 3.04149095,37.9681479 3.04149095,25.8919129 C3.04149095,13.8156778 12.8312137,4.02595507 24.9074488,4.02595507 C36.9836838,4.02595507 46.7734066,13.8156778 46.7734066,25.8919129 C46.7734066,27.8288954 46.5211616,29.7339068 46.0281063,31.5716448 C45.8134357,32.3717748 44.9907773,32.8463835 44.1906473,32.6317129 C43.3905173,32.4170423 42.9159086,31.5943838 43.1305792,30.7942538 C43.5557656,29.20948 43.7734066,27.5658056 43.7734066,25.8919129 C43.7734066,15.4725321 35.3268296,7.02595507 24.9074488,7.02595507 C14.488068,7.02595507 6.04149095,15.4725321 6.04149095,25.8919129 C6.04149095,36.3112937 14.488068,44.7578707 24.9074488,44.7578707 C30.606587,44.7578707 35.8862697,42.2170204 39.4481978,37.9132257 C39.4877979,37.8540586 39.5320981,37.7969917 39.5811249,37.7425283 C40.899334,36.2781427 42.7751263,35.4245057 44.7849457,35.4245057 C48.650939,35.4245057 51.7849457,38.5585124 51.7849457,42.4245057 C51.7849457,46.2904989 48.650939,49.4245057 44.7849457,49.4245057 C43.0670765,49.4245057 41.4418221,48.8015044 40.175256,47.6925043 C39.5519851,47.146771 39.4891286,46.1991058 40.034862,45.5758349 C40.5805954,44.952564 41.5282606,44.8897075 42.1515314,45.4354409 C42.8762173,46.0699729 43.8011047,46.4245057 44.7849457,46.4245057 C46.9940847,46.4245057 48.7849457,44.6336447 48.7849457,42.4245057 C48.7849457,40.2153667 46.9940847,38.4245057 44.7849457,38.4245057 C43.6778856,38.4245057 42.6466172,38.8748199 41.8975491,39.6562665 Z"/>
    <path fill="#E84046" fill-rule="nonzero" d="M35.1560486,44.0099314 C35.1560486,37.5585553 33.4140875,34 24.8772552,34 C16.340423,34 14.658849,37.5585553 14.658849,44.0099314 C17.8720512,45.9920857 21.2781866,46.9831628 24.8772552,46.9831628 C28.4763238,46.9831628 31.9025883,45.9920857 35.1560486,44.0099314 Z"/>
    <ellipse cx="24.694" cy="26" fill="#E84046" fill-rule="nonzero" rx="6" ry="7"/>
  </g>
</svg>