<svg xmlns="http://www.w3.org/2000/svg" width="73" height="73" viewBox="0 0 73 73">
  <g fill="#FFFFFE" fill-rule="evenodd" transform="translate(-.41)">
    <path d="M47.7695 26.084C46.9045 26.084 46.0955 26.042 45.3115 25.98 45.0375 26.198 44.7625 26.416 44.4875 26.636 45.5155 26.748 46.6055 26.809 47.7695 26.809 56.7185 26.809 61.3675 23.275 65.7635 19.763 65.4255 19.723 65.0765 19.692 64.7235 19.664 60.4415 23.059 56.0935 26.084 47.7695 26.084M73.0825 13.899C73.3455 14.042 73.6165 14.179 73.8875 14.314 76.5795 13.099 79.7785 12.31 84.0125 12.31 88.6345 12.31 92.0255 13.246 94.8655 14.656 95.1395 14.532 95.4105 14.405 95.6745 14.272 92.6555 12.69 89.0055 11.586 84.0125 11.586 79.4185 11.586 75.9575 12.517 73.0825 13.899M72.3245 14.286C69.7995 15.614 67.7135 17.275 65.6645 18.914 65.6255 18.945 65.5865 18.976 65.5475 19.007 65.8885 19.045 66.2145 19.094 66.5415 19.142 68.5955 17.501 70.6355 15.925 73.0795 14.699 72.8235 14.565 72.5715 14.427 72.3245 14.286M11.5255 12.31C16.1455 12.31 19.5365 13.246 22.3755 14.656 22.6495 14.532 22.9195 14.403 23.1835 14.271 20.1645 12.689 16.5165 11.586 11.5255 11.586L11.5255 12.31M23.9385 14.683C23.6895 14.815 23.4395 14.947 23.1815 15.071 25.4745 16.326 27.4245 17.883 29.4215 19.48 33.1655 22.475 37.0235 25.547 43.4935 26.501 43.6355 26.389 43.7755 26.276 43.9175 26.163 44.0345 26.069 44.1535 25.974 44.2715 25.88 37.6165 25.095 33.8345 22.083 29.8745 18.914 28.0245 17.434 26.1435 15.938 23.9385 14.683M11.5255 11.586C6.9305 11.586 3.4695 12.517.5935 13.899.8555 14.042 1.1265 14.18 1.3985 14.315 4.0905 13.099 7.2895 12.31 11.5255 12.31L11.5255 11.586M.4105 14.607L.4105 14.79C.4705 14.76.5295 14.729.5895 14.699.5305 14.668.4695 14.639.4105 14.607M23.9385 50.929C23.6895 51.06 23.4395 51.193 23.1815 51.317 25.4745 52.571 27.4245 54.129 29.4215 55.726 33.1655 58.721 37.0235 61.793 43.4935 62.747 43.6355 62.634 43.7755 62.522 43.9175 62.409 44.0345 62.315 44.1535 62.22 44.2715 62.126 37.6165 61.341 33.8345 58.329 29.8745 55.16 28.0245 53.68 26.1435 52.183 23.9385 50.929M72.3245 50.532C69.7995 51.86 67.7135 53.52 65.6645 55.16 65.6255 55.191 65.5865 55.222 65.5475 55.253 65.8885 55.29 66.2145 55.34 66.5415 55.388 68.5955 53.747 70.6355 52.171 73.0795 50.944 72.8235 50.81 72.5715 50.673 72.3245 50.532M11.5255 48.556C16.1455 48.556 19.5365 49.492 22.3755 50.901 22.6495 50.777 22.9195 50.649 23.1835 50.517 20.1645 48.934 16.5165 47.831 11.5255 47.831L11.5255 48.556M47.7695 62.329C46.9045 62.329 46.0955 62.288 45.3115 62.225 45.0375 62.443 44.7625 62.662 44.4875 62.882 45.5155 62.994 46.6055 63.055 47.7695 63.055 56.7185 63.055 61.3675 59.521 65.7635 56.009 65.4255 55.969 65.0765 55.937 64.7235 55.91 60.4415 59.305 56.0935 62.329 47.7695 62.329M73.0825 50.144C73.3455 50.288 73.6165 50.425 73.8875 50.56 76.5795 49.344 79.7785 48.556 84.0125 48.556 88.6345 48.556 92.0255 49.492 94.8655 50.902 95.1395 50.778 95.4105 50.65 95.6745 50.517 92.6555 48.935 89.0055 47.831 84.0125 47.831 79.4185 47.831 75.9575 48.763 73.0825 50.144M.4105 50.853L.4105 51.036C.4705 51.006.5295 50.975.5895 50.945.5305 50.914.4695 50.884.4105 50.853M11.5255 47.831C6.9305 47.831 3.4695 48.763.5935 50.144.8555 50.288 1.1265 50.425 1.3985 50.56 4.0905 49.345 7.2895 48.556 11.5255 48.556L11.5255 47.831"/>
    <path d="M26.0225 34.058C35.2105 34.058 39.8675 30.332 44.3705 26.729 44.4095 26.698 44.4485 26.667 44.4875 26.636 44.7625 26.416 45.0375 26.198 45.3115 25.98 49.5945 22.584 53.9415 19.559 62.2655 19.559 63.1305 19.559 63.9405 19.601 64.7235 19.664 65.0765 19.692 65.4255 19.723 65.7635 19.763 72.4195 20.548 76.2015 23.56 80.1625 26.729 84.6665 30.332 89.3245 34.058 98.5135 34.058 107.7025 34.058 112.3595 30.332 116.8635 26.729 116.9025 26.699 116.9415 26.667 116.9805 26.637 117.2545 26.416 117.5295 26.198 117.8045 25.98 122.0875 22.584 126.4345 19.559 134.7615 19.559L134.7615 18.835C125.8115 18.835 121.1615 22.369 116.7645 25.881 116.6465 25.975 116.5275 26.069 116.4105 26.163 116.2685 26.277 116.1275 26.389 115.9865 26.502 111.5295 30.06 107.1735 33.333 98.5135 33.333 89.5785 33.333 85.2255 29.85 80.6165 26.163 76.8725 23.168 73.0125 20.096 66.5415 19.142 66.2145 19.094 65.8885 19.045 65.5475 19.007 64.5195 18.895 63.4295 18.835 62.2655 18.835 53.3175 18.835 48.6675 22.368 44.2715 25.88 44.1535 25.974 44.0345 26.069 43.9175 26.163 43.7755 26.276 43.6355 26.389 43.4935 26.501 39.0365 30.06 34.6815 33.333 26.0225 33.333 17.0885 33.333 12.7355 29.85 8.1265 26.163 5.7985 24.301 3.4245 22.411.4105 21.014L.4105 21.794C3.1615 23.122 5.3875 24.9 7.6735 26.729 12.1775 30.332 16.8345 34.058 26.0225 34.058M26.0225 70.304C35.2105 70.304 39.8675 66.578 44.3705 62.975 44.4095 62.944 44.4485 62.913 44.4875 62.882 44.7625 62.662 45.0375 62.443 45.3115 62.225 49.5945 58.83 53.9415 55.806 62.2655 55.806 63.1305 55.806 63.9405 55.847 64.7235 55.91 65.0765 55.937 65.4255 55.969 65.7635 56.009 72.4195 56.794 76.2015 59.806 80.1625 62.975 84.6665 66.578 89.3245 70.304 98.5135 70.304 107.7025 70.304 112.3595 66.578 116.8635 62.975 116.9025 62.944 116.9415 62.913 116.9805 62.882 117.2545 62.662 117.5295 62.443 117.8045 62.225 122.0875 58.83 126.4345 55.806 134.7615 55.806L134.7615 55.08C125.8115 55.08 121.1615 58.614 116.7645 62.126 116.6465 62.221 116.5275 62.315 116.4105 62.409 116.2685 62.522 116.1275 62.635 115.9865 62.747 111.5295 66.306 107.1735 69.579 98.5135 69.579 89.5785 69.579 85.2255 66.096 80.6165 62.409 76.8725 59.414 73.0125 56.342 66.5415 55.388 66.2145 55.34 65.8885 55.29 65.5475 55.253 64.5195 55.141 63.4295 55.08 62.2655 55.08 53.3175 55.08 48.6675 58.614 44.2715 62.126 44.1535 62.22 44.0345 62.315 43.9175 62.409 43.7755 62.522 43.6355 62.634 43.4935 62.747 39.0365 66.306 34.6815 69.579 26.0225 69.579 17.0885 69.579 12.7355 66.096 8.1265 62.409 5.7985 60.547 3.4245 58.656.4105 57.26L.4105 58.039C3.1615 59.368 5.3875 61.145 7.6735 62.975 12.1775 66.578 16.8345 70.304 26.0225 70.304"/>
    <path d="M70.2395 68.129C79.1745 68.129 83.5275 71.612 88.1375 75.299 91.8815 78.294 95.7415 81.367 102.2135 82.32 102.3545 82.207 102.4945 82.095 102.6365 81.982 102.7545 81.888 102.8735 81.794 102.9915 81.699 96.3345 80.914 92.5525 77.902 88.5905 74.733 84.0865 71.13 79.4295 67.404 70.2395 67.404 61.0515 67.404 56.3945 71.129 51.8915 74.732 51.8525 74.764 51.8135 74.794 51.7745 74.826 52.1155 74.863 52.4405 74.912 52.7675 74.961 57.2245 71.402 61.5795 68.129 70.2395 68.129M29.7205 82.32C29.8615 82.207 30.0025 82.095 30.1435 81.982 30.2615 81.888 30.3805 81.793 30.4975 81.699 23.8435 80.913 20.0615 77.902 16.1005 74.732 12.0545 71.496 7.8755 68.17.4105 67.525L.4105 68.248C7.5935 68.871 11.5225 71.999 15.6475 75.299 19.3915 78.294 23.2505 81.366 29.7205 82.32M51.7745 2.334C52.1155 2.371 52.4405 2.421 52.7675 2.469 53.8365 1.616 54.9035.78 56.0215 0L54.7825 0C53.7855.729 52.8335 1.487 51.8915 2.241 51.8525 2.272 51.8135 2.303 51.7745 2.334M51.9905 3.09C51.6525 3.05 51.3035 3.018 50.9505 2.991 46.6675 6.386 42.3205 9.411 33.9965 9.411 33.1315 9.411 32.3215 9.369 31.5375 9.307 31.2635 9.524 30.9895 9.743 30.7135 9.963 31.7415 10.075 32.8315 10.136 33.9965 10.136 42.9445 10.136 47.5945 6.602 51.9905 3.09M29.7205 9.828C29.8615 9.716 30.0025 9.603 30.1435 9.49 30.2615 9.396 30.3805 9.302 30.4975 9.207 23.8435 8.422 20.0615 5.411 16.1005 2.241 15.1585 1.487 14.2055.729 13.2105 0L11.9715 0C13.2375.883 14.4345 1.837 15.6475 2.807 19.3915 5.802 23.2505 8.874 29.7205 9.828M29.7205 46.074C29.8615 45.961 30.0025 45.849 30.1435 45.736 30.2615 45.641 30.3805 45.547 30.4975 45.453 23.8435 44.668 20.0615 41.656 16.1005 38.487 12.0545 35.25 7.8755 31.925.4105 31.279L.4105 32.002C7.5935 32.625 11.5225 35.753 15.6475 39.053 19.3915 42.048 23.2505 45.12 29.7205 46.074M51.9905 39.336C51.6525 39.296 51.3035 39.265 50.9505 39.236 46.6675 42.632 42.3205 45.657 33.9965 45.657 33.1315 45.657 32.3215 45.615 31.5375 45.553 31.2635 45.77 30.9895 45.989 30.7135 46.209 31.7415 46.321 32.8315 46.381 33.9965 46.381 42.9445 46.381 47.5945 42.848 51.9905 39.336M70.2395 31.883C79.1745 31.883 83.5275 35.366 88.1375 39.053 91.8815 42.048 95.7415 45.12 102.2135 46.075 102.3545 45.962 102.4945 45.849 102.6365 45.736 102.7545 45.642 102.8735 45.548 102.9915 45.453 96.3345 44.669 92.5525 41.657 88.5905 38.487 84.0865 34.884 79.4295 31.158 70.2395 31.158 61.0515 31.158 56.3945 34.884 51.8915 38.487 51.8525 38.518 51.8135 38.549 51.7745 38.58 52.1155 38.617 52.4405 38.666 52.7675 38.715 57.2245 35.156 61.5795 31.883 70.2395 31.883"/>
    <path d="M12.2485 17.385C16.8435 17.385 20.3045 16.453 23.1815 15.071 23.4395 14.947 23.6895 14.815 23.9385 14.683 26.4625 13.356 28.5485 11.696 30.5965 10.057 30.6365 10.025 30.6755 9.994 30.7135 9.963 30.9895 9.743 31.2635 9.524 31.5375 9.307 35.8205 5.911 40.1685 2.887 48.4915 2.887 49.3565 2.887 50.1665 2.929 50.9505 2.991 51.3035 3.018 51.6525 3.05 51.9905 3.09 58.6465 3.875 62.4285 6.887 66.3895 10.057 68.2385 11.536 70.1205 13.032 72.3245 14.286 72.5715 14.427 72.8235 14.565 73.0795 14.699 76.0975 16.281 79.7475 17.385 84.7395 17.385 89.3335 17.385 92.7955 16.453 95.6705 15.072 95.9305 14.948 96.1795 14.816 96.4295 14.684 98.9545 13.357 101.0405 11.696 103.0895 10.057 103.1285 10.025 103.1675 9.994 103.2065 9.963 103.4815 9.743 103.7565 9.524 104.0305 9.307 108.3145 5.911 112.6605 2.887 120.9875 2.887L120.9875 2.161C112.0375 2.161 107.3885 5.695 102.9915 9.208 102.8735 9.302 102.7545 9.396 102.6365 9.491 102.4945 9.604 102.3545 9.716 102.2135 9.829 100.1575 11.47 98.1185 13.046 95.6745 14.272 95.4105 14.405 95.1395 14.532 94.8655 14.656 92.1735 15.872 88.9745 16.66 84.7395 16.66 80.1185 16.66 76.7275 15.724 73.8875 14.314 73.6165 14.179 73.3455 14.042 73.0825 13.899 70.7885 12.644 68.8395 11.088 66.8425 9.491 63.0985 6.495 59.2395 3.423 52.7675 2.469 52.4405 2.421 52.1155 2.371 51.7745 2.334 50.7465 2.223 49.6565 2.161 48.4915 2.161 39.5435 2.161 34.8935 5.695 30.4975 9.207 30.3805 9.302 30.2615 9.396 30.1435 9.49 30.0025 9.603 29.8615 9.716 29.7205 9.828 27.6665 11.469 25.6275 13.045 23.1835 14.271 22.9195 14.403 22.6495 14.532 22.3755 14.656 19.6835 15.872 16.4835 16.66 12.2485 16.66 7.6285 16.66 4.2385 15.724 1.3985 14.315 1.1265 14.18.8555 14.042.5935 13.899.5315 13.865.4725 13.828.4105 13.794L.4105 14.607C.4695 14.639.5305 14.668.5895 14.699 3.6085 16.281 7.2575 17.385 12.2485 17.385M12.2485 53.631C16.8435 53.631 20.3045 52.699 23.1815 51.317 23.4395 51.193 23.6895 51.06 23.9385 50.929 26.4625 49.601 28.5485 47.941 30.5965 46.302 30.6365 46.271 30.6755 46.24 30.7135 46.209 30.9895 45.989 31.2635 45.77 31.5375 45.553 35.8205 42.157 40.1685 39.132 48.4915 39.132 49.3565 39.132 50.1665 39.174 50.9505 39.236 51.3035 39.265 51.6525 39.296 51.9905 39.336 58.6465 40.121 62.4285 43.133 66.3895 46.302 68.2385 47.782 70.1205 49.278 72.3245 50.532 72.5715 50.673 72.8235 50.81 73.0795 50.944 76.0975 52.527 79.7475 53.631 84.7395 53.631 89.3335 53.631 92.7955 52.7 95.6705 51.318 95.9305 51.194 96.1795 51.061 96.4295 50.93 98.9545 49.602 101.0405 47.941 103.0895 46.302 103.1285 46.271 103.1675 46.24 103.2065 46.209 103.4815 45.989 103.7565 45.77 104.0305 45.553 108.3145 42.157 112.6605 39.132 120.9875 39.132L120.9875 38.408C112.0375 38.408 107.3885 41.941 102.9915 45.453 102.8735 45.548 102.7545 45.642 102.6365 45.736 102.4945 45.849 102.3545 45.962 102.2135 46.075 100.1575 47.715 98.1185 49.291 95.6745 50.517 95.4105 50.65 95.1395 50.778 94.8655 50.902 92.1735 52.118 88.9745 52.906 84.7395 52.906 80.1185 52.906 76.7275 51.97 73.8875 50.56 73.6165 50.425 73.3455 50.288 73.0825 50.144 70.7885 48.89 68.8395 47.333 66.8425 45.736 63.0985 42.741 59.2395 39.669 52.7675 38.715 52.4405 38.666 52.1155 38.617 51.7745 38.58 50.7465 38.468 49.6565 38.408 48.4915 38.408 39.5435 38.408 34.8935 41.941 30.4975 45.453 30.3805 45.547 30.2615 45.641 30.1435 45.736 30.0025 45.849 29.8615 45.961 29.7205 46.074 27.6665 47.715 25.6275 49.291 23.1835 50.517 22.9195 50.649 22.6495 50.777 22.3755 50.901 19.6835 52.118 16.4835 52.906 12.2485 52.906 7.6285 52.906 4.2385 51.97 1.3985 50.56 1.1265 50.425.8555 50.288.5935 50.144.5315 50.111.4725 50.075.4105 50.04L.4105 50.853C.4695 50.884.5305 50.914.5895 50.945 3.6085 52.527 7.2575 53.631 12.2485 53.631"/>
  </g>
</svg>
