<svg xmlns="http://www.w3.org/2000/svg" width="73" height="73" viewBox="0 0 73 73">
  <g fill="#FFFFFE" fill-rule="evenodd" transform="translate(-.31 -.353)">
    <polyline points="49.176 9.854 58.678 .352 57.108 .352 48.392 9.068 49.176 9.854"/>
    <polyline points="51.495 12.171 63.313 .352 62.943 .352 51.309 11.986 51.495 12.171"/>
    <polyline points="50.821 11.498 61.965 .352 59.708 .352 49.693 10.368 50.821 11.498"/>
    <polyline points="57.388 18.064 57.426 18.064 75.138 .352 72.88 .352 56.279 16.954 57.388 18.064"/>
    <polyline points="53.014 13.691 66.353 .352 64.782 .352 52.228 12.905 53.014 13.691"/>
    <polyline points="55.333 16.009 70.989 .352 70.618 .352 55.147 15.823 55.333 16.009"/>
    <polyline points="54.658 15.335 69.641 .352 67.382 .352 53.529 14.207 54.658 15.335"/>
    <polyline points="54.127 2.78 51.699 .352 50.127 .352 53.342 3.566 54.127 2.78"/>
    <polyline points="56.444 .463 56.334 .352 55.964 .352 56.26 .647 56.444 .463"/>
    <polyline points="55.77 1.137 54.986 .352 52.728 .352 54.642 2.265 55.77 1.137"/>
    <polyline points="67.84 18.064 69.41 18.064 63.706 12.36 62.919 13.145 67.84 18.064"/>
    <polyline points="74.046 18.064 66.023 10.041 65.838 10.226 73.675 18.064 74.046 18.064"/>
    <polyline points="72.698 18.064 65.35 10.716 64.221 11.845 70.441 18.064 72.698 18.064"/>
    <polyline points="83.612 18.064 85.871 18.064 71.936 4.13 70.806 5.258 83.612 18.064"/>
    <polyline points="77.085 18.064 67.543 8.521 66.757 9.307 75.514 18.064 77.085 18.064"/>
    <polyline points="81.722 18.064 69.861 6.205 69.675 6.389 81.35 18.064 81.722 18.064"/>
    <polyline points="80.373 18.064 69.186 6.878 68.058 8.007 78.115 18.064 80.373 18.064"/>
    <polyline points="54.617 18.064 56.873 18.064 46.831 8.021 46.831 10.28 54.617 18.064"/>
    <polyline points="48.089 18.064 46.831 16.808 46.831 18.064 48.089 18.064"/>
    <polyline points="52.353 18.064 52.724 18.064 46.831 12.171 46.831 12.541 52.353 18.064"/>
    <polyline points="49.118 18.064 51.377 18.064 46.831 13.52 46.831 15.777 49.118 18.064"/>
    <polyline points="57.407 18.084 57.426 18.064 57.388 18.064 57.407 18.084"/>
    <polyline points="60.928 25.529 62.498 25.529 68.615 19.413 67.829 18.628 60.928 25.529"/>
    <polyline points="66.763 25.529 67.133 25.529 70.933 21.73 70.748 21.544 66.763 25.529"/>
    <polyline points="63.528 25.529 65.785 25.529 70.258 21.056 69.129 19.927 63.528 25.529"/>
    <polyline points="68.602 25.529 70.172 25.529 72.451 23.25 71.666 22.465 68.602 25.529"/>
    <polyline points="71.203 25.529 73.46 25.529 74.096 24.893 72.968 23.765 71.203 25.529"/>
    <polyline points="75.305 25.529 76.876 25.529 69.41 18.064 67.84 18.064 75.305 25.529"/>
    <polyline points="77.906 25.529 80.163 25.529 72.698 18.064 70.441 18.064 77.906 25.529"/>
    <polyline points="47.879 25.529 46.831 24.482 46.831 25.529 47.879 25.529"/>
    <polyline points="52.144 25.529 52.514 25.529 46.831 19.846 46.831 20.216 52.144 25.529"/>
    <polyline points="48.908 25.529 51.166 25.529 46.831 21.194 46.831 23.451 48.908 25.529"/>
    <polyline points="61.227 24.675 62.356 23.547 56.873 18.064 54.617 18.064 61.227 24.675"/>
    <polyline points="46.831 18.378 53.983 25.529 55.553 25.529 48.089 18.064 46.831 18.064 46.831 18.378"/>
    <polyline points="52.353 18.064 59.819 25.529 60.19 25.529 52.724 18.064 52.353 18.064"/>
    <polyline points="56.584 25.529 58.842 25.529 51.377 18.064 49.118 18.064 56.584 25.529"/>
    <polyline points="60.926 25.529 48.392 38.065 49.176 38.849 62.498 25.529 60.926 25.529"/>
    <polyline points="66.763 25.529 51.309 40.983 51.495 41.167 67.133 25.529 66.763 25.529"/>
    <polyline points="63.528 25.529 49.693 39.364 50.821 40.493 65.785 25.529 63.528 25.529"/>
    <polyline points="56.279 45.952 57.407 47.08 76.844 27.642 75.716 26.514 56.279 45.952"/>
    <polyline points="68.602 25.529 52.228 41.901 53.014 42.687 70.171 25.529 68.602 25.529"/>
    <polyline points="74.731 25.529 74.436 25.529 55.147 44.819 55.333 45.005 74.769 25.567 74.731 25.529"/>
    <polyline points="53.529 43.203 54.658 44.331 73.46 25.529 71.203 25.529 53.529 43.203"/>
    <polyline points="46.831 28.66 47.849 27.642 46.831 26.625 46.831 28.66"/>
    <polyline points="68.615 48.41 67.829 47.623 48.392 67.061 49.176 67.847 68.615 48.41"/>
    <polyline points="70.933 50.727 70.748 50.541 51.309 69.978 51.495 70.165 70.933 50.727"/>
    <polyline points="49.693 68.362 50.821 69.49 70.258 50.053 69.129 48.923 49.693 68.362"/>
    <polyline points="57.426 76.058 76.844 56.639 75.716 55.511 56.279 74.948 57.388 76.058 57.426 76.058"/>
    <polyline points="72.451 52.246 71.666 51.461 52.228 70.898 53.014 71.683 72.451 52.246"/>
    <polyline points="74.769 54.565 74.585 54.379 55.147 73.817 55.333 74.001 74.769 54.565"/>
    <polyline points="74.096 53.891 72.968 52.761 53.529 72.2 54.658 73.329 74.096 53.891"/>
    <polyline points="46.831 57.657 47.849 56.639 46.831 55.623 46.831 57.657"/>
    <polyline points="46.831 26.052 53.342 32.563 54.127 31.777 47.879 25.529 46.831 25.529 46.831 26.052"/>
    <polyline points="56.26 29.645 56.444 29.459 52.514 25.529 52.144 25.529 56.26 29.645"/>
    <polyline points="54.642 31.262 55.77 30.134 51.166 25.529 48.91 25.529 54.642 31.262"/>
    <polyline points="57.178 28.726 57.964 27.939 55.553 25.529 53.983 25.529 57.178 28.726"/>
    <polyline points="60.096 25.808 60.282 25.622 60.19 25.529 59.819 25.529 60.096 25.808"/>
    <polyline points="58.48 27.424 59.608 26.296 58.842 25.529 56.584 25.529 58.48 27.424"/>
    <polyline points="62.919 42.142 82.338 61.559 83.124 60.773 63.706 41.355 62.919 42.142"/>
    <polyline points="65.838 39.224 85.255 58.642 85.442 58.456 66.023 39.038 65.838 39.224"/>
    <polyline points="64.221 40.842 83.638 60.258 84.767 59.13 65.35 39.712 64.221 40.842"/>
    <polyline points="70.806 34.255 90.225 53.672 91.353 52.544 71.936 33.126 70.806 34.255"/>
    <polyline points="66.757 38.303 86.175 57.721 86.96 56.935 67.543 37.519 66.757 38.303"/>
    <polyline points="69.675 35.386 89.094 54.803 89.278 54.618 69.861 35.2 69.675 35.386"/>
    <polyline points="68.058 37.004 87.475 56.42 88.605 55.292 69.186 35.874 68.058 37.004"/>
    <polyline points="53.342 61.559 54.127 60.773 46.831 53.477 46.831 55.048 53.342 61.559"/>
    <polyline points="56.26 58.642 56.444 58.456 46.831 48.842 46.831 49.212 56.26 58.642"/>
    <polyline points="54.642 60.258 55.77 59.13 46.831 50.191 46.831 52.447 54.642 60.258"/>
    <polyline points="46.831 39.276 61.227 53.672 62.356 52.544 46.831 37.017 46.831 39.276"/>
    <polyline points="57.178 57.721 57.964 56.935 46.831 45.803 46.831 47.373 57.178 57.721"/>
    <polyline points="60.096 54.803 60.282 54.618 46.831 41.167 46.831 41.538 60.096 54.803"/>
    <polyline points="58.48 56.42 59.608 55.292 46.831 42.516 46.831 44.773 58.48 56.42"/>
    <polyline points="63.706 70.353 62.919 71.138 67.84 76.058 69.41 76.058 63.706 70.353"/>
    <polyline points="66.023 68.034 65.838 68.219 73.675 76.058 74.046 76.058 66.023 68.034"/>
    <polyline points="65.35 68.709 64.221 69.838 70.441 76.058 72.698 76.058 65.35 68.709"/>
    <polyline points="70.806 63.251 83.612 76.058 85.871 76.058 71.936 62.123 70.806 63.251"/>
    <polyline points="67.543 66.516 66.757 67.3 75.514 76.058 77.085 76.058 67.543 66.516"/>
    <polyline points="69.861 64.197 69.675 64.382 81.35 76.058 81.722 76.058 69.861 64.197"/>
    <polyline points="69.186 64.871 68.058 65.999 78.115 76.058 80.373 76.058 69.186 64.871"/>
    <polyline points="54.617 76.058 56.873 76.058 46.831 66.014 46.831 68.272 54.617 76.058"/>
    <polyline points="46.831 70.535 52.353 76.058 52.724 76.058 46.831 70.165 46.831 70.535"/>
    <polyline points="49.118 76.058 51.377 76.058 46.831 71.513 46.831 73.769 49.118 76.058"/>
    <polyline points="33.894 .776 34.318 .352 33.947 .352 33.894 .406 33.894 .776"/>
    <polyline points="33.894 12.601 46.142 .352 43.883 .352 33.894 10.342 33.894 12.601"/>
    <polyline points="33.894 3.814 37.355 .352 35.785 .352 33.894 2.244 33.894 3.814"/>
    <polyline points="33.894 8.451 41.992 .352 41.621 .352 33.894 8.079 33.894 8.451"/>
    <polyline points="33.894 7.103 40.644 .352 38.386 .352 33.894 4.846 33.894 7.103"/>
    <polyline points="38.843 18.064 40.413 18.064 34.709 12.36 33.923 13.145 38.843 18.064"/>
    <polyline points="45.05 18.064 37.026 10.041 36.84 10.226 44.678 18.064 45.05 18.064"/>
    <polyline points="43.702 18.064 36.352 10.716 35.224 11.845 41.444 18.064 43.702 18.064"/>
    <polyline points="46.831 8.021 42.938 4.13 41.809 5.258 46.831 10.28 46.831 8.021"/>
    <polyline points="46.831 18.064 46.831 16.808 38.545 8.521 37.761 9.307 46.517 18.064 46.831 18.064"/>
    <polyline points="46.831 12.171 46.831 12.171 40.864 6.205 40.678 6.389 46.831 12.541 46.831 12.171"/>
    <polyline points="46.831 15.777 46.831 13.52 40.19 6.878 39.062 8.007 46.831 15.777"/>
    <polyline points="39.617 19.413 38.833 18.628 33.894 23.567 33.894 25.137 39.617 19.413"/>
    <polyline points="38.138 25.529 41.935 21.73 41.751 21.544 37.767 25.529 38.138 25.529"/>
    <polyline points="41.261 21.056 40.133 19.927 34.532 25.529 36.788 25.529 41.261 21.056"/>
    <polyline points="43.456 23.25 42.669 22.465 39.605 25.529 41.175 25.529 43.456 23.25"/>
    <polyline points="45.587 25.383 45.441 25.529 45.734 25.529 45.587 25.383"/>
    <polyline points="44.464 25.529 45.099 24.893 43.971 23.765 42.206 25.529 44.464 25.529"/>
    <polyline points="46.309 25.529 46.831 25.529 46.831 24.482 40.413 18.064 38.843 18.064 46.309 25.529"/>
    <polyline points="46.831 20.216 46.831 19.846 45.05 18.064 44.678 18.064 46.831 20.216"/>
    <polyline points="46.831 23.451 46.831 21.194 43.702 18.064 41.444 18.064 46.831 23.451"/>
    <polyline points="46.517 18.064 46.831 18.378 46.831 18.064 46.517 18.064"/>
    <polyline points="20.18 9.854 29.681 .352 28.11 .352 19.395 9.068 20.18 9.854"/>
    <polyline points="22.313 11.986 22.498 12.171 33.894 .776 33.894 .406 22.313 11.986"/>
    <polyline points="21.825 11.498 32.968 .352 30.712 .352 20.695 10.368 21.825 11.498"/>
    <polyline points="27.282 16.954 28.392 18.064 28.43 18.064 33.894 12.601 33.894 10.342 27.282 16.954"/>
    <polyline points="23.233 12.905 24.017 13.691 33.894 3.814 33.894 2.244 23.233 12.905"/>
    <polyline points="26.151 15.823 26.335 16.009 33.894 8.451 33.894 8.079 26.151 15.823"/>
    <polyline points="24.534 14.207 25.662 15.335 33.894 7.103 33.894 4.846 24.534 14.207"/>
    <polyline points=".316 .352 .316 .722 .684 .352 .316 .352"/>
    <polyline points="4.949 .352 .316 4.987 .316 5.357 5.321 .352 4.949 .352"/>
    <polyline points="1.714 .352 .316 1.752 .316 4.01 3.973 .352 1.714 .352"/>
    <polyline points="14.887 .352 .316 14.925 .316 17.183 17.145 .352 14.887 .352"/>
    <polyline points="6.79 .352 .316 6.825 .316 8.396 8.36 .352 6.79 .352"/>
    <polyline points="12.624 .352 .316 12.662 .316 13.033 12.995 .352 12.624 .352"/>
    <polyline points="9.389 .352 .316 9.427 .316 11.684 11.646 .352 9.389 .352"/>
    <polyline points="25.131 2.78 22.703 .352 21.131 .352 24.345 3.566 25.131 2.78"/>
    <polyline points="27.448 .463 27.338 .352 26.966 .352 27.262 .647 27.448 .463"/>
    <polyline points="26.773 1.137 25.991 .352 23.733 .352 25.645 2.265 26.773 1.137"/>
    <polyline points="5.713 12.36 4.926 13.145 9.847 18.064 11.416 18.064 5.713 12.36"/>
    <polyline points="16.052 18.064 8.03 10.041 7.845 10.226 15.682 18.064 16.052 18.064"/>
    <polyline points="14.704 18.064 7.356 10.716 6.226 11.845 12.447 18.064 14.704 18.064"/>
    <polyline points="25.619 18.064 27.877 18.064 13.943 4.13 12.813 5.258 25.619 18.064"/>
    <polyline points="19.091 18.064 9.55 8.521 8.764 9.307 17.52 18.064 19.091 18.064"/>
    <polyline points="23.727 18.064 11.867 6.205 11.682 6.389 23.357 18.064 23.727 18.064"/>
    <polyline points="22.38 18.064 11.194 6.878 10.065 8.007 20.122 18.064 22.38 18.064"/>
    <polyline points="28.41 18.084 28.43 18.064 28.392 18.064 28.41 18.084"/>
    <polyline points="33.501 25.529 33.894 25.137 33.894 23.567 31.93 25.529 33.501 25.529"/>
    <polyline points="10.621 19.413 9.835 18.628 2.934 25.529 4.505 25.529 10.621 19.413"/>
    <polyline points="9.14 25.529 12.94 21.73 12.754 21.544 8.77 25.529 9.14 25.529"/>
    <polyline points="12.265 21.056 11.136 19.927 5.535 25.529 7.792 25.529 12.265 21.056"/>
    <polyline points="12.18 25.529 14.459 23.25 13.674 22.465 10.608 25.529 12.18 25.529"/>
    <polyline points="16.591 25.383 16.445 25.529 16.738 25.529 16.591 25.383"/>
    <polyline points="15.466 25.529 16.102 24.893 14.973 23.765 13.21 25.529 15.466 25.529"/>
    <polyline points="11.416 18.064 9.847 18.064 17.311 25.529 18.883 25.529 11.416 18.064"/>
    <polyline points="23.146 25.529 23.518 25.529 16.053 18.064 15.682 18.064 23.146 25.529"/>
    <polyline points="19.913 25.529 22.169 25.529 14.704 18.064 12.447 18.064 19.913 25.529"/>
    <polyline points="32.231 24.675 33.361 23.547 27.877 18.064 25.619 18.064 32.231 24.675"/>
    <polyline points="24.986 25.529 26.556 25.529 19.091 18.064 17.52 18.064 24.986 25.529"/>
    <polyline points="30.823 25.529 31.194 25.529 23.727 18.064 23.357 18.064 30.823 25.529"/>
    <polyline points="27.587 25.529 29.845 25.529 22.38 18.064 20.122 18.064 27.587 25.529"/>
    <polyline points="4.364 23.547 .316 19.5 .316 21.756 3.235 24.675 4.364 23.547"/>
    <polyline points="1.825 25.529 2.196 25.529 .316 23.648 .316 24.02 1.825 25.529"/>
    <polyline points=".316 24.997 .316 25.529 .849 25.529 .316 24.997"/>
    <polyline points="38.136 25.529 37.767 25.529 33.894 29.401 33.894 29.773 38.136 25.529"/>
    <polyline points="36.788 25.529 34.532 25.529 33.894 26.168 33.894 28.424 36.788 25.529"/>
    <polyline points="46.831 28.66 46.831 26.625 46.719 26.514 33.894 39.34 33.894 41.597 46.831 28.66"/>
    <polyline points="41.175 25.529 39.605 25.529 33.894 31.241 33.894 32.812 41.175 25.529"/>
    <polyline points="45.773 25.567 45.736 25.529 45.441 25.529 33.894 37.077 33.894 37.447 45.773 25.567"/>
    <polyline points="44.464 25.529 42.206 25.529 33.894 33.842 33.894 36.099 44.464 25.529"/>
    <polyline points="39.617 48.41 38.833 47.623 33.894 52.563 33.894 54.133 39.617 48.41"/>
    <polyline points="41.935 50.727 41.751 50.541 33.894 58.398 33.894 58.77 41.935 50.727"/>
    <polyline points="41.261 50.053 40.133 48.923 33.894 55.163 33.894 57.42 41.261 50.053"/>
    <polyline points="46.831 57.657 46.831 55.623 46.719 55.511 33.894 68.335 33.894 70.594 46.831 57.657"/>
    <polyline points="43.456 52.246 42.669 51.461 33.894 60.237 33.894 61.807 43.456 52.246"/>
    <polyline points="45.773 54.565 45.587 54.379 33.894 66.073 33.894 66.445 45.773 54.565"/>
    <polyline points="45.099 53.891 43.971 52.761 33.894 62.839 33.894 65.096 45.099 53.891"/>
    <polyline points="46.309 25.529 46.831 26.052 46.831 25.529 46.309 25.529"/>
    <polyline points="33.923 42.142 46.831 55.048 46.831 53.477 34.709 41.355 33.923 42.142"/>
    <polyline points="36.84 39.224 46.831 49.212 46.831 48.842 37.026 39.038 36.84 39.224"/>
    <polyline points="35.224 40.842 46.831 52.449 46.831 50.191 36.352 39.712 35.224 40.842"/>
    <polyline points="46.831 37.017 42.938 33.126 41.809 34.255 46.831 39.276 46.831 37.017"/>
    <polyline points="37.761 38.303 46.831 47.373 46.831 45.803 38.545 37.519 37.761 38.303"/>
    <polyline points="40.864 35.2 40.678 35.386 46.831 41.538 46.831 41.167 40.864 35.2"/>
    <polyline points="39.062 37.004 46.831 44.773 46.831 42.516 40.19 35.874 39.062 37.004"/>
    <polyline points="34.709 70.353 33.923 71.138 38.843 76.058 40.413 76.058 34.709 70.353"/>
    <polyline points="36.84 68.219 44.678 76.058 45.05 76.058 37.026 68.034 36.84 68.219"/>
    <polyline points="35.224 69.838 41.444 76.058 43.702 76.058 36.352 68.709 35.224 69.838"/>
    <polyline points="42.938 62.123 41.809 63.251 46.831 68.272 46.831 66.014 42.938 62.123"/>
    <polyline points="37.761 67.3 46.517 76.058 46.831 76.058 46.831 74.799 38.545 66.516 37.761 67.3"/>
    <polyline points="40.678 64.382 46.831 70.534 46.831 70.165 40.864 64.197 40.678 64.382"/>
    <polyline points="39.062 65.999 46.831 73.769 46.831 71.513 40.19 64.871 39.062 65.999"/>
    <polyline points="31.93 25.529 19.395 38.065 20.18 38.849 33.501 25.529 31.93 25.529"/>
    <polyline points="33.894 29.773 33.894 29.401 22.313 40.983 22.498 41.167 33.894 29.773"/>
    <polyline points="33.894 26.168 20.695 39.364 21.825 40.493 33.894 28.424 33.894 26.168"/>
    <polyline points="33.894 41.597 33.894 39.34 27.282 45.952 28.41 47.08 33.894 41.597"/>
    <polyline points="33.894 32.812 33.894 31.241 23.233 41.901 24.017 42.687 33.894 32.812"/>
    <polyline points="33.894 37.447 33.894 37.077 26.151 44.819 26.335 45.005 33.894 37.447"/>
    <polyline points="33.894 36.099 33.894 33.842 24.534 43.203 25.662 44.331 33.894 36.099"/>
    <polyline points="2.934 25.529 2.933 25.529 .316 28.148 .316 29.718 4.505 25.529 2.934 25.529"/>
    <polyline points="8.77 25.529 8.768 25.529 .316 33.983 .316 34.353 9.14 25.529 8.77 25.529"/>
    <polyline points="5.535 25.529 .316 30.748 .316 33.005 7.792 25.529 5.535 25.529"/>
    <polyline points="17.723 26.514 .316 43.92 .316 46.178 18.852 27.642 17.723 26.514"/>
    <polyline points="10.608 25.529 10.608 25.529 .316 35.822 .316 37.392 12.178 25.529 10.608 25.529"/>
    <polyline points="16.738 25.529 16.444 25.529 .316 41.658 .316 42.029 16.776 25.567 16.738 25.529"/>
    <polyline points="13.21 25.529 13.21 25.529 .316 38.423 .316 40.681 15.466 25.529 13.21 25.529"/>
    <polyline points="20.18 67.847 33.894 54.133 33.894 52.563 19.395 67.061 20.18 67.847"/>
    <polyline points="33.894 58.77 33.894 58.398 22.313 69.978 22.498 70.165 33.894 58.77"/>
    <polyline points="33.894 57.42 33.894 55.163 20.695 68.362 21.825 69.49 33.894 57.42"/>
    <polyline points="28.43 76.058 33.894 70.594 33.894 68.335 27.282 74.948 28.392 76.058 28.43 76.058"/>
    <polyline points="33.894 61.807 33.894 60.237 23.233 70.898 24.017 71.683 33.894 61.807"/>
    <polyline points="33.894 66.445 33.894 66.073 26.151 73.817 26.335 74.001 33.894 66.445"/>
    <polyline points="33.894 65.096 33.894 62.839 24.534 72.2 25.662 73.329 33.894 65.096"/>
    <polyline points="9.835 47.623 .316 57.145 .316 58.715 10.621 48.41 9.835 47.623"/>
    <polyline points="12.754 50.541 .316 62.98 .316 63.35 12.94 50.727 12.754 50.541"/>
    <polyline points="11.136 48.923 .316 59.745 .316 62.002 12.265 50.053 11.136 48.923"/>
    <polyline points="17.723 55.511 .316 72.918 .316 75.174 18.852 56.639 17.723 55.511"/>
    <polyline points="13.674 51.461 .316 64.819 .316 66.389 14.459 52.246 13.674 51.461"/>
    <polyline points="16.591 54.379 .316 70.654 .316 71.025 16.776 54.565 16.591 54.379"/>
    <polyline points="14.973 52.761 .316 67.419 .316 69.677 16.102 53.891 14.973 52.761"/>
    <polyline points="25.131 31.777 18.883 25.529 17.311 25.529 24.345 32.563 25.131 31.777"/>
    <polyline points="27.262 29.645 27.448 29.459 23.518 25.529 23.148 25.529 27.262 29.645"/>
    <polyline points="25.645 31.262 26.773 30.134 22.169 25.529 19.913 25.529 25.645 31.262"/>
    <polyline points="28.183 28.726 28.968 27.939 26.558 25.529 24.986 25.529 28.183 28.726"/>
    <polyline points="31.101 25.808 31.285 25.622 31.194 25.529 30.823 25.529 31.101 25.808"/>
    <polyline points="29.483 27.424 30.611 26.296 29.846 25.529 27.587 25.529 29.483 27.424"/>
    <polyline points="2.103 25.808 2.289 25.622 2.196 25.529 1.825 25.529 2.103 25.808"/>
    <polyline points="1.615 26.296 .849 25.529 .316 25.529 .316 27.253 .486 27.424 1.615 26.296"/>
    <polyline points="25.131 60.773 5.713 41.355 4.926 42.142 24.345 61.559 25.131 60.773"/>
    <polyline points="27.448 58.456 8.03 39.038 7.845 39.224 27.262 58.642 27.448 58.456"/>
    <polyline points="26.773 59.13 7.356 39.712 6.226 40.842 25.645 60.258 26.773 59.13"/>
    <polyline points="33.361 52.544 13.943 33.126 12.813 34.255 32.231 53.672 33.361 52.544"/>
    <polyline points="28.968 56.935 9.55 37.519 8.764 38.303 28.183 57.721 28.968 56.935"/>
    <polyline points="31.285 54.618 11.867 35.2 11.682 35.386 31.101 54.803 31.285 54.618"/>
    <polyline points="30.611 55.292 11.194 35.874 10.065 37.004 29.483 56.42 30.611 55.292"/>
    <polyline points="4.364 52.544 .316 48.495 .316 50.752 3.235 53.672 4.364 52.544"/>
    <polyline points="2.289 54.618 .316 52.645 .316 53.017 2.103 54.803 2.289 54.618"/>
    <polyline points="1.615 55.292 .316 53.993 .316 56.251 .486 56.42 1.615 55.292"/>
    <polyline points="5.713 70.353 4.926 71.138 9.847 76.058 11.416 76.058 5.713 70.353"/>
    <polyline points="16.052 76.058 8.03 68.034 7.845 68.219 15.682 76.058 16.052 76.058"/>
    <polyline points="14.704 76.058 7.356 68.709 6.226 69.838 12.447 76.058 14.704 76.058"/>
    <polyline points="25.619 76.058 27.877 76.058 13.943 62.123 12.813 63.251 25.619 76.058"/>
    <polyline points="19.091 76.058 9.55 66.516 8.764 67.3 17.52 76.058 19.091 76.058"/>
    <polyline points="23.727 76.058 11.867 64.197 11.682 64.382 23.357 76.058 23.727 76.058"/>
    <polyline points="22.38 76.058 11.194 64.871 10.065 65.999 20.122 76.058 22.38 76.058"/>
  </g>
</svg>
