<svg xmlns="http://www.w3.org/2000/svg" width="73" height="73" viewBox="0 0 73 73">
  <g fill="#FFF" fill-rule="evenodd">
    <path d="M138.397 24.385C136.928 27.44 135.541 30.326 132.9 30.326 130.26 30.326 128.872 27.44 127.403 24.385 125.838 21.128 124.218 17.76 120.817 17.76 117.418 17.76 115.799 21.128 114.233 24.385 112.764 27.44 111.378 30.326 108.737 30.326 106.096 30.326 104.709 27.44 103.241 24.385 101.675 21.128 100.055 17.76 96.655 17.76 93.255 17.76 91.635 21.128 90.069 24.385 88.6 27.44 87.214 30.326 84.572 30.326 81.931 30.326 80.544 27.44 79.076 24.385 77.51 21.128 75.89 17.76 72.49 17.76 69.09 17.76 67.471 21.128 65.905 24.385 64.436 27.44 63.05 30.326 60.409 30.326 57.768 30.326 56.382 27.44 54.913 24.385 53.347 21.128 51.728 17.76 48.328 17.76 44.927 17.76 43.307 21.128 41.742 24.385 40.273 27.44 38.885 30.326 36.245 30.326 33.604 30.326 32.217 27.44 30.748 24.385 29.182 21.128 27.562 17.76 24.162 17.76 20.762 17.76 19.143 21.128 17.578 24.385 16.109 27.44 14.721 30.326 12.082 30.326 9.441 30.326 8.053 27.44 6.586 24.385 5.019 21.128 3.4 17.76-2.84217094e-14 17.76L-2.84217094e-14 18.969C2.64 18.969 4.028 21.854 5.496 24.909 7.062 28.166 8.681 31.534 12.082 31.534 15.481 31.534 17.1 28.166 18.667 24.909 20.135 21.854 21.522 18.969 24.162 18.969 26.803 18.969 28.19 21.854 29.659 24.909 31.225 28.166 32.844 31.534 36.245 31.534 39.645 31.534 41.264 28.166 42.831 24.909 44.3 21.854 45.687 18.969 48.328 18.969 50.968 18.969 52.355 21.854 53.824 24.909 55.389 28.166 57.009 31.534 60.409 31.534 63.809 31.534 65.428 28.166 66.994 24.909 68.463 21.854 69.849 18.969 72.49 18.969 75.131 18.969 76.518 21.854 77.987 24.909 79.552 28.166 81.172 31.534 84.572 31.534 87.973 31.534 89.593 28.166 91.158 24.909 92.628 21.854 94.014 18.969 96.655 18.969 99.296 18.969 100.683 21.854 102.151 24.909 103.718 28.166 105.337 31.534 108.737 31.534 112.136 31.534 113.756 28.166 115.322 24.909 116.79 21.854 118.177 18.969 120.817 18.969 123.458 18.969 124.845 21.854 126.314 24.909 127.881 28.166 129.5 31.534 132.9 31.534 136.301 31.534 137.92 28.166 139.486 24.909 140.955 21.854 142.343 18.969 144.983 18.969L144.983 17.76C141.583 17.76 139.963 21.128 138.397 24.385M138.397 72.713C136.928 75.768 135.541 78.653 132.9 78.653 130.26 78.653 128.872 75.768 127.403 72.713 125.838 69.456 124.218 66.088 120.817 66.088 117.418 66.088 115.799 69.456 114.233 72.713 112.764 75.768 111.378 78.653 108.737 78.653 106.096 78.653 104.709 75.768 103.241 72.713 101.675 69.456 100.055 66.088 96.655 66.088 93.255 66.088 91.635 69.456 90.069 72.713 88.6 75.768 87.214 78.653 84.572 78.653 81.931 78.653 80.544 75.768 79.076 72.713 77.51 69.456 75.89 66.088 72.49 66.088 69.09 66.088 67.471 69.456 65.905 72.713 64.436 75.768 63.05 78.653 60.409 78.653 57.768 78.653 56.382 75.768 54.913 72.713 53.347 69.456 51.728 66.088 48.328 66.088 44.927 66.088 43.307 69.456 41.742 72.713 40.273 75.768 38.885 78.653 36.245 78.653 33.604 78.653 32.217 75.768 30.748 72.713 29.182 69.456 27.562 66.088 24.162 66.088 20.762 66.088 19.143 69.456 17.578 72.713 16.109 75.768 14.721 78.653 12.082 78.653 9.441 78.653 8.053 75.768 6.586 72.713 5.019 69.456 3.4 66.088-2.84217094e-14 66.088L-2.84217094e-14 67.296C2.64 67.296 4.028 70.182 5.496 73.236 7.062 76.494 8.681 79.861 12.082 79.861 15.481 79.861 17.1 76.493 18.667 73.236 20.135 70.182 21.522 67.296 24.162 67.296 26.803 67.296 28.19 70.182 29.659 73.236 31.225 76.493 32.844 79.861 36.245 79.861 39.645 79.861 41.264 76.494 42.831 73.236 44.3 70.182 45.687 67.296 48.328 67.296 50.968 67.296 52.355 70.182 53.824 73.236 55.389 76.494 57.009 79.861 60.409 79.861 63.809 79.861 65.428 76.493 66.994 73.236 68.463 70.182 69.849 67.296 72.49 67.296 75.131 67.296 76.518 70.182 77.987 73.236 79.552 76.493 81.172 79.861 84.572 79.861 87.973 79.861 89.593 76.494 91.158 73.236 92.628 70.182 94.014 67.296 96.655 67.296 99.296 67.296 100.683 70.182 102.151 73.236 103.718 76.494 105.337 79.861 108.737 79.861 112.136 79.861 113.756 76.493 115.322 73.236 116.79 70.182 118.177 67.296 120.817 67.296 123.458 67.296 124.845 70.182 126.314 73.236 127.881 76.494 129.5 79.861 132.9 79.861 136.301 79.861 137.92 76.494 139.486 73.236 140.955 70.182 142.343 67.296 144.983 67.296L144.983 66.088C141.583 66.088 139.963 69.456 138.397 72.713M60.409 7.37C63.809 7.37 65.428 4.002 66.994.745 67.114.495 67.234.246 67.354-4.4408921e-16L66.011-4.4408921e-16C65.976.074 65.94.147 65.905.221 64.436 3.276 63.05 6.162 60.409 6.162 57.768 6.162 56.382 3.276 54.913.222 54.878.147 54.842.074 54.806-4.4408921e-16L53.465-4.4408921e-16C53.585.246 53.704.495 53.824.745 55.389 4.002 57.009 7.37 60.409 7.37M36.245 7.37C39.645 7.37 41.264 4.002 42.831.745 42.951.495 43.071.246 43.19-4.4408921e-16L41.848-4.4408921e-16C41.813.074 41.777.147 41.742.222 40.273 3.276 38.885 6.162 36.245 6.162 33.604 6.162 32.217 3.276 30.748.221 30.713.147 30.676.074 30.641-4.4408921e-16L29.3-4.4408921e-16C29.419.246 29.539.495 29.659.745 31.225 4.002 32.844 7.37 36.245 7.37M12.082 7.37C15.481 7.37 17.1 4.002 18.667.745 18.787.495 18.906.246 19.026-4.4408921e-16L17.684-4.4408921e-16C17.648.074 17.613.147 17.578.221 16.109 3.276 14.721 6.162 12.082 6.162 9.441 6.162 8.053 3.276 6.586.222 6.55.147 6.514.074 6.478-4.4408921e-16L5.136-4.4408921e-16C5.257.246 5.376.495 5.496.745 7.062 4.002 8.681 7.37 12.082 7.37M138.397 48.549C136.928 51.604 135.541 54.489 132.9 54.489 130.26 54.489 128.872 51.604 127.403 48.549 125.838 45.292 124.218 41.924 120.817 41.924 117.418 41.924 115.799 45.292 114.233 48.549 112.764 51.604 111.378 54.489 108.737 54.489 106.096 54.489 104.709 51.604 103.241 48.549 101.675 45.292 100.055 41.924 96.655 41.924 93.255 41.924 91.635 45.292 90.069 48.549 88.6 51.604 87.214 54.489 84.572 54.489 81.931 54.489 80.544 51.604 79.076 48.549 77.51 45.292 75.89 41.924 72.49 41.924 69.09 41.924 67.471 45.292 65.905 48.549 64.436 51.604 63.05 54.489 60.409 54.489 57.768 54.489 56.382 51.604 54.913 48.549 53.347 45.292 51.728 41.924 48.328 41.924 44.927 41.924 43.307 45.292 41.742 48.549 40.273 51.604 38.885 54.489 36.245 54.489 33.604 54.489 32.217 51.604 30.748 48.549 29.182 45.292 27.562 41.924 24.162 41.924 20.762 41.924 19.143 45.292 17.578 48.549 16.109 51.604 14.721 54.489 12.082 54.489 9.441 54.489 8.053 51.604 6.586 48.549 5.019 45.292 3.4 41.924-2.84217094e-14 41.924L-2.84217094e-14 43.132C2.64 43.132 4.028 46.018 5.496 49.073 7.062 52.33 8.681 55.698 12.082 55.698 15.481 55.698 17.1 52.33 18.667 49.073 20.135 46.018 21.522 43.132 24.162 43.132 26.803 43.132 28.19 46.018 29.659 49.073 31.225 52.33 32.844 55.698 36.245 55.698 39.645 55.698 41.264 52.33 42.831 49.073 44.3 46.018 45.687 43.132 48.328 43.132 50.968 43.132 52.355 46.018 53.824 49.073 55.389 52.33 57.009 55.698 60.409 55.698 63.809 55.698 65.428 52.33 66.994 49.073 68.463 46.018 69.849 43.132 72.49 43.132 75.131 43.132 76.518 46.018 77.987 49.073 79.552 52.33 81.172 55.698 84.572 55.698 87.973 55.698 89.593 52.33 91.158 49.073 92.628 46.018 94.014 43.132 96.655 43.132 99.296 43.132 100.683 46.018 102.151 49.073 103.718 52.33 105.337 55.698 108.737 55.698 112.136 55.698 113.756 52.33 115.322 49.072 116.79 46.018 118.177 43.132 120.817 43.132 123.458 43.132 124.845 46.018 126.314 49.073 127.881 52.33 129.5 55.698 132.9 55.698 136.301 55.698 137.92 52.33 139.486 49.073 140.955 46.018 142.343 43.132 144.983 43.132L144.983 41.924C141.583 41.924 139.963 45.292 138.397 48.549"/>
    <path d="M138.397 12.304C136.928 15.358 135.541 18.244 132.9 18.244 130.26 18.244 128.872 15.358 127.403 12.304 125.838 9.046 124.218 5.679 120.817 5.679 117.418 5.679 115.799 9.046 114.233 12.303 112.764 15.358 111.378 18.244 108.737 18.244 106.096 18.244 104.709 15.358 103.241 12.304 101.675 9.046 100.055 5.679 96.655 5.679 93.255 5.679 91.635 9.046 90.069 12.304 88.6 15.358 87.214 18.244 84.572 18.244 81.931 18.244 80.544 15.358 79.076 12.303 77.51 9.046 75.89 5.679 72.49 5.679 69.09 5.679 67.471 9.046 65.905 12.303 64.436 15.358 63.05 18.244 60.409 18.244 57.768 18.244 56.382 15.358 54.913 12.304 53.347 9.046 51.728 5.679 48.328 5.679 44.927 5.679 43.307 9.046 41.742 12.304 40.273 15.358 38.885 18.244 36.245 18.244 33.604 18.244 32.217 15.358 30.748 12.303 29.182 9.046 27.562 5.679 24.162 5.679 20.762 5.679 19.143 9.046 17.578 12.303 16.109 15.358 14.721 18.244 12.082 18.244 9.441 18.244 8.053 15.358 6.586 12.304 5.019 9.046 3.4 5.679-2.84217094e-14 5.679L-2.84217094e-14 6.887C2.64 6.887 4.028 9.772 5.496 12.827 7.062 16.084 8.681 19.452 12.082 19.452 15.481 19.452 17.1 16.084 18.667 12.827 20.135 9.772 21.522 6.887 24.162 6.887 26.803 6.887 28.19 9.772 29.659 12.827 31.225 16.084 32.844 19.452 36.245 19.452 39.645 19.452 41.264 16.084 42.831 12.827 44.3 9.772 45.687 6.887 48.328 6.887 50.968 6.887 52.355 9.772 53.824 12.827 55.389 16.084 57.009 19.452 60.409 19.452 63.809 19.452 65.428 16.084 66.994 12.827 68.463 9.772 69.849 6.887 72.49 6.887 75.131 6.887 76.518 9.772 77.987 12.827 79.552 16.084 81.172 19.452 84.572 19.452 87.973 19.452 89.593 16.084 91.158 12.827 92.628 9.772 94.014 6.887 96.655 6.887 99.296 6.887 100.683 9.772 102.151 12.827 103.718 16.084 105.337 19.452 108.737 19.452 112.136 19.452 113.756 16.084 115.322 12.827 116.79 9.772 118.177 6.887 120.817 6.887 123.458 6.887 124.845 9.772 126.314 12.827 127.881 16.084 129.5 19.452 132.9 19.452 136.301 19.452 137.92 16.084 139.486 12.827 140.955 9.772 142.343 6.887 144.983 6.887L144.983 5.679C141.583 5.679 139.963 9.046 138.397 12.304M138.397 60.631C136.928 63.686 135.541 66.571 132.9 66.571 130.26 66.571 128.872 63.686 127.403 60.631 125.838 57.374 124.218 54.006 120.817 54.006 117.418 54.006 115.799 57.374 114.233 60.631 112.764 63.686 111.378 66.571 108.737 66.571 106.096 66.571 104.709 63.686 103.241 60.631 101.675 57.374 100.055 54.006 96.655 54.006 93.255 54.006 91.635 57.374 90.069 60.631 88.6 63.686 87.214 66.571 84.572 66.571 81.931 66.571 80.544 63.686 79.076 60.631 77.51 57.374 75.89 54.006 72.49 54.006 69.09 54.006 67.471 57.374 65.905 60.631 64.436 63.686 63.05 66.571 60.409 66.571 57.768 66.571 56.382 63.686 54.913 60.631 53.347 57.374 51.728 54.006 48.328 54.006 44.927 54.006 43.307 57.374 41.742 60.631 40.273 63.686 38.885 66.571 36.245 66.571 33.604 66.571 32.217 63.686 30.748 60.631 29.182 57.374 27.562 54.006 24.162 54.006 20.762 54.006 19.143 57.374 17.578 60.631 16.109 63.686 14.721 66.571 12.082 66.571 9.441 66.571 8.053 63.686 6.586 60.631 5.019 57.374 3.4 54.006-2.84217094e-14 54.006L-2.84217094e-14 55.214C2.64 55.214 4.028 58.1 5.496 61.154 7.062 64.412 8.681 67.779 12.082 67.779 15.481 67.779 17.1 64.412 18.667 61.154 20.135 58.1 21.522 55.214 24.162 55.214 26.803 55.214 28.19 58.1 29.659 61.154 31.225 64.412 32.844 67.779 36.245 67.779 39.645 67.779 41.264 64.412 42.831 61.154 44.3 58.1 45.687 55.214 48.328 55.214 50.968 55.214 52.355 58.1 53.824 61.154 55.389 64.412 57.009 67.779 60.409 67.779 63.809 67.779 65.428 64.412 66.994 61.154 68.463 58.1 69.849 55.214 72.49 55.214 75.131 55.214 76.518 58.1 77.987 61.154 79.552 64.412 81.172 67.779 84.572 67.779 87.973 67.779 89.593 64.412 91.158 61.154 92.628 58.1 94.014 55.214 96.655 55.214 99.296 55.214 100.683 58.1 102.151 61.154 103.718 64.412 105.337 67.779 108.737 67.779 112.136 67.779 113.756 64.412 115.322 61.154 116.79 58.1 118.177 55.214 120.817 55.214 123.458 55.214 124.845 58.1 126.314 61.154 127.881 64.412 129.5 67.779 132.9 67.779 136.301 67.779 137.92 64.412 139.486 61.154 140.955 58.1 142.343 55.214 144.983 55.214L144.983 54.006C141.583 54.006 139.963 57.374 138.397 60.631M138.397 36.467C136.928 39.522 135.541 42.408 132.9 42.408 130.26 42.408 128.872 39.522 127.403 36.467 125.838 33.21 124.218 29.842 120.817 29.842 117.418 29.842 115.799 33.21 114.233 36.467 112.764 39.522 111.378 42.408 108.737 42.408 106.096 42.408 104.709 39.522 103.241 36.467 101.675 33.21 100.055 29.842 96.655 29.842 93.255 29.842 91.635 33.21 90.069 36.467 88.6 39.522 87.214 42.408 84.572 42.408 81.931 42.408 80.544 39.522 79.076 36.467 77.51 33.21 75.89 29.842 72.49 29.842 69.09 29.842 67.471 33.21 65.905 36.467 64.436 39.522 63.05 42.408 60.409 42.408 57.768 42.408 56.382 39.522 54.913 36.467 53.347 33.21 51.728 29.842 48.328 29.842 44.927 29.842 43.307 33.21 41.742 36.467 40.273 39.522 38.885 42.408 36.245 42.408 33.604 42.408 32.217 39.522 30.748 36.467 29.182 33.21 27.562 29.842 24.162 29.842 20.762 29.842 19.143 33.21 17.578 36.467 16.109 39.522 14.721 42.408 12.082 42.408 9.441 42.408 8.053 39.522 6.586 36.467 5.019 33.21 3.4 29.842-2.84217094e-14 29.842L-2.84217094e-14 31.051C2.64 31.051 4.028 33.936 5.496 36.991 7.062 40.248 8.681 43.616 12.082 43.616 15.481 43.616 17.1 40.248 18.667 36.991 20.135 33.936 21.522 31.051 24.162 31.051 26.803 31.051 28.19 33.936 29.659 36.991 31.225 40.248 32.844 43.616 36.245 43.616 39.645 43.616 41.264 40.248 42.831 36.991 44.3 33.936 45.687 31.051 48.328 31.051 50.968 31.051 52.355 33.936 53.824 36.991 55.389 40.248 57.009 43.616 60.409 43.616 63.809 43.616 65.428 40.248 66.994 36.991 68.463 33.936 69.849 31.051 72.49 31.051 75.131 31.051 76.518 33.936 77.987 36.991 79.552 40.248 81.172 43.616 84.572 43.616 87.973 43.616 89.593 40.248 91.158 36.991 92.628 33.936 94.014 31.051 96.655 31.051 99.296 31.051 100.683 33.936 102.151 36.991 103.718 40.248 105.337 43.616 108.737 43.616 112.136 43.616 113.756 40.248 115.322 36.991 116.79 33.936 118.177 31.051 120.817 31.051 123.458 31.051 124.845 33.936 126.314 36.991 127.881 40.248 129.5 43.616 132.9 43.616 136.301 43.616 137.92 40.248 139.486 36.991 140.955 33.936 142.343 31.051 144.983 31.051L144.983 29.842C141.583 29.842 139.963 33.21 138.397 36.467"/>
    <path d="M74.908 12.565C74.908 11.23 73.826 10.149 72.492 10.149 71.157 10.149 70.075 11.23 70.075 12.565 70.075 13.899 71.157 14.981 72.492 14.981 73.826 14.981 74.908 13.899 74.908 12.565M26.58 12.565C26.58 11.23 25.498 10.149 24.164 10.149 22.83 10.149 21.748 11.23 21.748 12.565 21.748 13.899 22.83 14.981 24.164 14.981 25.498 14.981 26.58 13.899 26.58 12.565M74.908 60.893C74.908 59.558 73.826 58.477 72.492 58.477 71.157 58.477 70.075 59.558 70.075 60.893 70.075 62.227 71.157 63.309 72.492 63.309 73.826 63.309 74.908 62.227 74.908 60.893M26.58 60.893C26.58 59.558 25.498 58.477 24.164 58.477 22.83 58.477 21.748 59.558 21.748 60.893 21.748 62.227 22.83 63.309 24.164 63.309 25.498 63.309 26.58 62.227 26.58 60.893M63.009 24.647C63.009 23.313 61.926 22.23 60.593 22.23 59.258 22.23 58.176 23.313 58.176 24.647 58.176 25.981 59.258 27.063 60.593 27.063 61.926 27.063 63.009 25.981 63.009 24.647M14.681 24.647C14.681 23.313 13.599 22.23 12.264 22.23 10.93 22.23 9.848 23.313 9.848 24.647 9.848 25.981 10.93 27.063 12.264 27.063 13.599 27.063 14.681 25.981 14.681 24.647M63.009 72.975C63.009 71.64 61.926 70.559 60.593 70.559 59.258 70.559 58.176 71.64 58.176 72.975 58.176 74.309 59.258 75.391 60.593 75.391 61.926 75.391 63.009 74.309 63.009 72.975M14.681 72.975C14.681 71.64 13.599 70.559 12.264 70.559 10.93 70.559 9.848 71.64 9.848 72.975 9.848 74.309 10.93 75.391 12.264 75.391 13.599 75.391 14.681 74.309 14.681 72.975M60.593 2.9C61.926 2.9 63.009 1.818 63.009.483 63.009.317 62.992.156 62.96 2.22044605e-16L58.224 2.22044605e-16C58.192.156 58.176.317 58.176.483 58.176 1.818 59.258 2.9 60.593 2.9M12.264 2.9C13.599 2.9 14.681 1.818 14.681.483 14.681.317 14.664.156 14.633 2.22044605e-16L9.897 2.22044605e-16C9.865.156 9.848.317 9.848.483 9.848 1.818 10.93 2.9 12.264 2.9M63.009 48.811C63.009 47.476 61.926 46.395 60.593 46.395 59.258 46.395 58.176 47.476 58.176 48.811 58.176 50.146 59.258 51.227 60.593 51.227 61.926 51.227 63.009 50.146 63.009 48.811M14.681 48.811C14.681 47.476 13.599 46.395 12.264 46.395 10.93 46.395 9.848 47.476 9.848 48.811 9.848 50.146 10.93 51.227 12.264 51.227 13.599 51.227 14.681 50.146 14.681 48.811M39.327 24.647C39.327 23.313 38.245 22.23 36.911 22.23 35.576 22.23 34.494 23.313 34.494 24.647 34.494 25.981 35.576 27.063 36.911 27.063 38.245 27.063 39.327 25.981 39.327 24.647M39.327 72.975C39.327 71.64 38.245 70.559 36.911 70.559 35.576 70.559 34.494 71.64 34.494 72.975 34.494 74.309 35.576 75.391 36.911 75.391 38.245 75.391 39.327 74.309 39.327 72.975M36.911 2.9C38.245 2.9 39.327 1.818 39.327.483 39.327.317 39.31.156 39.279 2.22044605e-16L34.543 2.22044605e-16C34.51.156 34.494.317 34.494.483 34.494 1.818 35.576 2.9 36.911 2.9M39.327 48.811C39.327 47.476 38.245 46.395 36.911 46.395 35.576 46.395 34.494 47.476 34.494 48.811 34.494 50.146 35.576 51.227 36.911 51.227 38.245 51.227 39.327 50.146 39.327 48.811M74.908 36.729C74.908 35.395 73.826 34.313 72.492 34.313 71.157 34.313 70.075 35.395 70.075 36.729 70.075 38.063 71.157 39.146 72.492 39.146 73.826 39.146 74.908 38.063 74.908 36.729M26.58 36.729C26.58 35.395 25.498 34.313 24.164 34.313 22.83 34.313 21.748 35.395 21.748 36.729 21.748 38.063 22.83 39.146 24.164 39.146 25.498 39.146 26.58 38.063 26.58 36.729M50.744 36.729C50.744 35.395 49.662 34.313 48.328 34.313 46.993 34.313 45.911 35.395 45.911 36.729 45.911 38.063 46.993 39.146 48.328 39.146 49.662 39.146 50.744 38.063 50.744 36.729M2.417 36.729C2.417 35.395 1.335 34.313 0 34.313L0 39.146C1.335 39.146 2.417 38.063 2.417 36.729M50.744 12.565C50.744 11.23 49.662 10.149 48.328 10.149 46.993 10.149 45.911 11.23 45.911 12.565 45.911 13.899 46.993 14.981 48.328 14.981 49.662 14.981 50.744 13.899 50.744 12.565M2.417 12.565C2.417 11.23 1.335 10.149 0 10.149L0 14.981C1.335 14.981 2.417 13.899 2.417 12.565M50.744 60.893C50.744 59.558 49.662 58.477 48.328 58.477 46.993 58.477 45.911 59.558 45.911 60.893 45.911 62.227 46.993 63.309 48.328 63.309 49.662 63.309 50.744 62.227 50.744 60.893M2.417 60.893C2.417 59.558 1.335 58.477 0 58.477L0 63.309C1.335 63.309 2.417 62.227 2.417 60.893"/>
  </g>
</svg>
