<svg xmlns="http://www.w3.org/2000/svg" width="73" height="73" viewBox="0 0 73 73">
  <g fill="#ffffff" fill-rule="evenodd">
    <path d="M19.632 30.788C20.98 33.124 20.177 36.123 17.841 37.471 17.096 37.901 16.252 38.128 15.399 38.128 13.653 38.128 12.028 37.19 11.156 35.681 9.808 33.344 10.611 30.345 12.947 28.996 13.691 28.567 14.535 28.34 15.389 28.34 17.134 28.34 18.761 29.278 19.632 30.788zM12.404 28.055C9.548 29.704 8.566 33.368 10.215 36.225 11.279 38.07 13.267 39.216 15.399 39.216 16.444 39.216 17.476 38.939 18.385 38.414 21.241 36.765 22.222 33.1 20.574 30.244 19.508 28.399 17.521 27.253 15.389 27.253 14.344 27.253 13.312 27.529 12.404 28.055L12.404 28.055zM120.25 137.84C119.139 136.536 117.225 136.169 115.686 137.055 114.331 137.838 113.677 139.363 113.933 140.82 112.587 141.15 111.208 141.326 109.819 141.326 103.6 141.326 97.809 137.985 94.702 132.606 93.369 130.294 92.599 127.764 92.408 125.178 95.522 124.707 98.542 123.657 101.294 122.067 107.127 118.699 111.307 113.268 113.072 106.77 117.991 107.718 122.352 110.756 124.9 115.171 129.356 122.889 127.218 132.629 120.25 137.84zM111.99 106.594C110.284 112.765 106.3 117.921 100.75 121.125 98.15 122.626 95.302 123.626 92.366 124.085 92.35 122.516 92.543 120.934 92.96 119.376 94.165 114.877 97.051 111.117 101.084 108.789 103.733 107.259 106.742 106.451 109.784 106.451 110.527 106.451 111.263 106.501 111.99 106.594zM88.652 124.377C85.577 124.377 82.576 123.788 79.794 122.693 79.905 121.918 79.769 121.1 79.347 120.368 78.345 118.635 76.129 118.041 74.395 119.042 74.22 119.143 74.062 119.259 73.91 119.382 71.402 117.469 69.254 115.06 67.633 112.252 65.843 109.155 64.825 105.824 64.506 102.477 64.537 102.461 64.568 102.448 64.597 102.43 66.331 101.43 66.926 99.213 65.924 97.479 65.618 96.949 65.197 96.527 64.713 96.223 65.254 92.923 66.476 89.75 68.309 86.919 69.954 87.379 71.673 87.623 73.423 87.623 76.748 87.623 80.037 86.739 82.934 85.067 86.661 82.915 89.383 79.685 90.941 75.996 97.73 76.658 103.957 80.168 108.036 85.608 108.02 85.696 108.005 85.784 107.992 85.872 107.618 86.011 107.252 86.175 106.896 86.38 103.43 88.381 102.241 92.815 104.243 96.283 106.007 99.337 109.657 100.619 112.871 99.514 112.919 101.516 112.716 103.534 112.258 105.531 111.443 105.42 110.618 105.363 109.784 105.363 106.552 105.363 103.355 106.222 100.541 107.848 96.255 110.321 93.19 114.315 91.911 119.094 91.455 120.793 91.248 122.519 91.278 124.23 90.408 124.327 89.531 124.377 88.652 124.377zM89.789 75.914C88.299 79.249 85.788 82.163 82.39 84.125 79.657 85.702 76.557 86.535 73.423 86.535 71.899 86.535 70.404 86.335 68.962 85.964 70.906 83.256 73.436 80.905 76.504 79.133 80.19 77.006 84.374 75.882 88.602 75.882 89 75.882 89.396 75.895 89.789 75.914zM57.843 77.549C52.889 68.967 55.838 57.956 64.42 53.001 66.953 51.539 69.805 50.725 72.707 50.614 72.786 50.917 72.905 51.216 73.069 51.501 74.07 53.234 76.286 53.829 78.02 52.828 78.558 52.517 78.987 52.089 79.291 51.594 83.311 52.996 86.784 55.797 88.967 59.578 91.752 64.403 92.04 69.995 90.23 74.848 89.69 74.813 89.148 74.794 88.602 74.794 84.183 74.794 79.811 75.969 75.961 78.191 72.635 80.111 69.915 82.679 67.855 85.641 63.692 84.283 60.086 81.435 57.843 77.549zM67.633 39.76C65.843 36.663 64.825 33.331 64.506 29.985 64.537 29.969 64.568 29.956 64.597 29.938 66.331 28.938 66.926 26.72 65.924 24.987 65.618 24.457 65.197 24.035 64.713 23.731 65.254 20.431 66.476 17.258 68.309 14.427 69.954 14.887 71.673 15.13 73.423 15.13 76.748 15.13 80.037 14.247 82.934 12.575 86.661 10.423 89.383 7.192 90.941 3.504 97.73 4.165 103.957 7.676 108.036 13.116 108.02 13.204 108.005 13.292 107.992 13.38 107.618 13.519 107.252 13.682 106.896 13.888 103.43 15.889 102.241 20.324 104.243 23.791 106.007 26.845 109.657 28.127 112.871 27.022 112.919 29.024 112.716 31.042 112.258 33.039 111.443 32.928 110.618 32.871 109.784 32.871 106.552 32.871 103.355 33.73 100.541 35.355 96.255 37.829 93.19 41.823 91.911 46.602 91.455 48.301 91.248 50.027 91.278 51.738 90.408 51.834 89.531 51.885 88.652 51.885 85.577 51.885 82.576 51.294 79.794 50.202 79.905 49.425 79.769 48.608 79.347 47.876 78.345 46.143 76.129 45.548 74.395 46.55 74.22 46.651 74.062 46.766 73.91 46.891 71.402 44.977 69.254 42.568 67.633 39.76zM76.504 6.641C80.19 4.514 84.374 3.389 88.602 3.389 89 3.389 89.396 3.403 89.789 3.422 88.299 6.757 85.788 9.671 82.39 11.633 79.657 13.21 76.557 14.043 73.423 14.043 71.899 14.043 70.404 13.843 68.962 13.472 70.906 10.764 73.436 8.413 76.504 6.641zM109.298 12.438C110.013 9.772 111.722 7.544 114.112 6.165 115.682 5.258 117.464 4.779 119.267 4.779 122.95 4.779 126.382 6.758 128.222 9.946 131.07 14.879 129.374 21.209 124.442 24.057 122.871 24.964 121.09 25.443 119.287 25.443 118.153 25.443 117.046 25.254 116.001 24.903 117.963 22.632 118.383 19.286 116.799 16.542 115.242 13.845 112.215 12.535 109.315 13.024 109.276 12.968 109.238 12.91 109.197 12.854 109.229 12.715 109.261 12.577 109.298 12.438zM92.366 51.594C92.35 50.023 92.543 48.441 92.96 46.884 94.165 42.385 97.051 38.625 101.084 36.297 103.733 34.768 106.742 33.959 109.784 33.959 110.527 33.959 111.263 34.009 111.99 34.103 110.284 40.273 106.3 45.429 100.75 48.633 98.15 50.135 95.302 51.134 92.366 51.594zM124.9 42.678C129.356 50.396 127.218 60.137 120.25 65.348 119.139 64.044 117.225 63.676 115.686 64.563 114.331 65.347 113.677 66.871 113.933 68.329 112.587 68.657 111.208 68.834 109.819 68.834 103.6 68.834 97.809 65.493 94.702 60.114 93.369 57.802 92.599 55.272 92.408 52.686 95.522 52.215 98.542 51.164 101.294 49.575 107.127 46.206 111.307 40.776 113.072 34.277 117.991 35.226 122.352 38.264 124.9 42.678zM109.298 84.93C110.013 82.264 111.722 80.037 114.112 78.656 115.682 77.75 117.464 77.271 119.267 77.271 122.95 77.271 126.382 79.251 128.222 82.438 131.07 87.371 129.374 93.701 124.442 96.549 122.871 97.456 121.09 97.935 119.287 97.935 118.153 97.935 117.046 97.747 116.001 97.395 117.963 95.125 118.383 91.779 116.799 89.034 115.242 86.337 112.215 85.028 109.315 85.516 109.276 85.46 109.238 85.402 109.197 85.346 109.229 85.207 109.261 85.068 109.298 84.93zM125.842 114.626C123.145 109.954 118.536 106.729 113.333 105.709 113.835 103.496 114.037 101.257 113.945 99.04 114.012 99.003 114.08 98.975 114.146 98.936 114.504 98.729 114.832 98.49 115.141 98.235 116.444 98.744 117.848 99.022 119.287 99.022 121.28 99.022 123.25 98.493 124.985 97.491 130.439 94.343 132.312 87.347 129.165 81.894 127.129 78.372 123.338 76.184 119.267 76.184 117.273 76.184 115.302 76.713 113.568 77.715 111.045 79.172 109.21 81.485 108.362 84.256 104.165 79.05 98.027 75.678 91.347 74.947 93.149 69.866 92.81 64.059 89.909 59.034 88.34 56.318 86.144 54.078 83.566 52.453 85.224 52.794 86.925 52.973 88.652 52.973 89.547 52.973 90.44 52.923 91.326 52.828 91.536 55.554 92.354 58.22 93.762 60.658 97.061 66.372 103.213 69.922 109.819 69.922 111.326 69.922 112.824 69.727 114.281 69.362 114.308 69.413 114.331 69.465 114.361 69.515 115.361 71.248 117.578 71.842 119.311 70.842 120.918 69.913 121.544 67.939 120.828 66.275 128.289 60.753 130.591 50.362 125.842 42.135 123.145 37.461 118.536 34.237 113.333 33.217 113.835 31.003 114.037 28.765 113.945 26.546 114.012 26.511 114.08 26.482 114.146 26.444 114.504 26.237 114.832 25.998 115.141 25.743 116.444 26.252 117.848 26.53 119.287 26.53 121.28 26.53 123.25 26.001 124.985 24.998 130.439 21.851 132.312 14.854 129.165 9.402 127.129 5.88 123.338 3.691 119.267 3.691 117.273 3.691 115.302 4.221 113.568 5.223 111.045 6.68 109.21 8.993 108.362 11.765 104.165 6.558 98.027 3.186 91.347 2.454 91.632 1.652 91.865.833 92.041 0L90.928 0C90.749.8 90.518 1.587 90.23 2.355 89.69 2.321 89.148 2.301 88.602 2.301 84.183 2.301 79.811 3.476 75.961 5.699 72.635 7.62 69.915 10.187 67.855 13.149 63.692 11.791 60.086 8.943 57.843 5.056 56.909 3.438 56.257 1.733 55.869 0L54.76 0C55.165 1.92 55.867 3.81 56.901 5.599 59.23 9.632 62.938 12.616 67.231 14.093 65.456 16.908 64.256 20.038 63.686 23.291 62.8 23.063 61.828 23.167 60.973 23.661 59.239 24.662 58.645 26.878 59.645 28.612 60.436 29.979 61.981 30.633 63.45 30.359 63.813 33.766 64.869 37.151 66.691 40.304 68.37 43.212 70.589 45.709 73.18 47.7 72.824 48.245 72.619 48.875 72.59 49.522 69.537 49.652 66.54 50.521 63.876 52.06 54.775 57.313 51.648 68.991 56.901 78.092 59.23 82.124 62.938 85.108 67.231 86.585 65.456 89.4 64.256 92.53 63.686 95.783 62.8 95.554 61.828 95.659 60.973 96.153 59.239 97.153 58.645 99.371 59.645 101.104 60.436 102.471 61.981 103.125 63.45 102.851 63.813 106.258 64.869 109.643 66.691 112.795 68.37 115.704 70.589 118.201 73.18 120.192 72.824 120.737 72.619 121.367 72.59 122.014 69.537 122.144 66.54 123.013 63.876 124.551 56.564 128.772 53.113 137.139 54.76 144.984L55.869 144.984C54.202 137.522 57.456 129.513 64.42 125.493 66.953 124.03 69.805 123.217 72.707 123.105 72.786 123.409 72.905 123.708 73.069 123.993 74.07 125.726 76.286 126.321 78.02 125.319 78.558 125.009 78.987 124.581 79.291 124.087 83.311 125.488 86.784 128.289 88.967 132.07 91.311 136.131 91.883 140.734 90.928 144.984L92.041 144.984C92.979 140.544 92.352 135.757 89.909 131.526 88.34 128.81 86.144 126.57 83.566 124.945 85.224 125.287 86.925 125.465 88.652 125.465 89.547 125.465 90.44 125.415 91.326 125.319 91.536 128.045 92.354 130.712 93.762 133.15 97.061 138.864 103.213 142.414 109.819 142.414 111.326 142.414 112.824 142.219 114.281 141.855 114.308 141.905 114.331 141.957 114.361 142.007 115.361 143.74 117.578 144.335 119.311 143.333 120.918 142.405 121.544 140.431 120.828 138.768 128.289 133.245 130.591 122.854 125.842 114.626L125.842 114.626z"/>
    <path d="M47.76,137.84 C46.647,136.536 44.732,136.169 43.194,137.055 C41.839,137.838 41.185,139.363 41.439,140.82 C40.097,141.15 38.716,141.326 37.328,141.326 C31.109,141.326 25.316,137.985 22.21,132.606 C20.876,130.294 20.105,127.764 19.915,125.178 C23.028,124.707 26.05,123.657 28.801,122.067 C34.636,118.699 38.815,113.268 40.58,106.77 C45.499,107.718 49.86,110.756 52.408,115.171 C56.863,122.889 54.725,132.629 47.76,137.84 Z M20.469,119.376 C21.674,114.877 24.558,111.117 28.592,108.789 C31.243,107.259 34.25,106.451 37.292,106.451 C38.035,106.451 38.771,106.501 39.499,106.594 C37.791,112.765 33.809,117.921 28.258,121.125 C25.659,122.626 22.81,123.626 19.873,124.085 C19.858,122.516 20.051,120.934 20.469,119.376 Z M36.806,84.93 C37.519,82.264 39.23,80.037 41.618,78.656 C43.189,77.75 44.972,77.271 46.773,77.271 C50.459,77.271 53.889,79.251 55.731,82.438 C58.578,87.371 56.884,93.701 51.949,96.549 C50.379,97.456 48.596,97.935 46.794,97.935 C45.663,97.935 44.555,97.747 43.509,97.395 C45.47,95.125 45.892,91.779 44.307,89.034 C42.751,86.337 39.723,85.028 36.824,85.516 C36.784,85.46 36.745,85.402 36.705,85.346 C36.736,85.207 36.769,85.068 36.806,84.93 Z M20.469,46.884 C21.674,42.385 24.558,38.625 28.592,36.297 C31.243,34.768 34.25,33.959 37.292,33.959 C38.035,33.959 38.771,34.009 39.499,34.103 C37.791,40.273 33.809,45.429 28.258,48.633 C25.659,50.135 22.81,51.134 19.873,51.594 C19.858,50.023 20.051,48.441 20.469,46.884 Z M40.58,34.277 C45.499,35.226 49.86,38.264 52.408,42.678 C56.863,50.396 54.725,60.137 47.76,65.348 C46.647,64.044 44.732,63.676 43.194,64.563 C41.838,65.347 41.185,66.871 41.439,68.329 C40.097,68.657 38.716,68.834 37.328,68.834 C31.109,68.834 25.316,65.493 22.21,60.114 C20.876,57.802 20.105,55.272 19.915,52.686 C23.028,52.215 26.05,51.164 28.801,49.575 C34.636,46.206 38.815,40.776 40.58,34.277 Z M36.806,12.438 C37.519,9.772 39.23,7.544 41.618,6.165 C43.189,5.258 44.972,4.779 46.773,4.779 C50.459,4.779 53.889,6.758 55.731,9.946 C58.578,14.879 56.884,21.209 51.949,24.057 C50.379,24.964 48.596,25.443 46.794,25.443 C45.663,25.443 44.555,25.254 43.509,24.903 C45.47,22.632 45.892,19.286 44.307,16.542 C42.751,13.845 39.723,12.535 36.824,13.024 C36.784,12.968 36.745,12.91 36.705,12.854 C36.736,12.715 36.769,12.577 36.806,12.438 Z M53.35,114.626 C50.652,109.954 46.044,106.729 40.841,105.709 C41.343,103.496 41.544,101.257 41.452,99.04 C41.519,99.003 41.586,98.975 41.653,98.936 C42.012,98.729 42.34,98.49 42.649,98.235 C43.953,98.744 45.355,99.022 46.794,99.022 C48.787,99.022 50.758,98.493 52.492,97.491 C57.945,94.343 59.82,87.347 56.671,81.894 C54.639,78.372 50.846,76.184 46.773,76.184 C44.78,76.184 42.811,76.713 41.075,77.715 C38.552,79.172 36.718,81.485 35.872,84.256 C31.673,79.05 25.536,75.678 18.853,74.947 C20.658,69.866 20.316,64.059 17.417,59.034 C15.848,56.318 13.652,54.078 11.073,52.453 C12.73,52.794 14.434,52.973 16.159,52.973 C17.055,52.973 17.948,52.923 18.836,52.828 C19.044,55.554 19.861,58.22 21.27,60.658 C24.568,66.372 30.721,69.922 37.328,69.922 C38.835,69.922 40.332,69.727 41.79,69.362 C41.816,69.413 41.838,69.465 41.867,69.515 C42.869,71.248 45.084,71.842 46.818,70.842 C48.426,69.913 49.053,67.939 48.335,66.275 C55.797,60.753 58.099,50.362 53.35,42.135 C50.652,37.461 46.044,34.237 40.841,33.217 C41.343,31.003 41.544,28.765 41.452,26.546 C41.519,26.511 41.586,26.482 41.653,26.444 C42.012,26.237 42.34,25.998 42.649,25.743 C43.953,26.252 45.355,26.53 46.794,26.53 C48.787,26.53 50.758,26.001 52.492,24.998 C57.945,21.851 59.82,14.854 56.671,9.402 C54.639,5.88 50.846,3.691 46.773,3.691 C44.78,3.691 42.811,4.221 41.075,5.223 C38.552,6.68 36.718,8.993 35.872,11.765 C31.673,6.558 25.536,3.186 18.853,2.454 C19.139,1.652 19.372,0.833 19.549,0 L18.436,0 C18.256,0.8 18.024,1.587 17.739,2.355 C17.198,2.321 16.655,2.301 16.112,2.301 C11.691,2.301 7.319,3.476 3.469,5.699 C2.226,6.417 1.071,7.229 0,8.116 L0,9.541 C1.213,8.46 2.551,7.485 4.013,6.641 C7.697,4.514 11.881,3.389 16.112,3.389 C16.507,3.389 16.904,3.403 17.298,3.422 C15.807,6.757 13.296,9.671 9.897,11.633 C7.165,13.21 4.064,14.043 0.93,14.043 C0.618,14.043 0.308,14.028 0,14.012 L0,15.105 C0.308,15.12 0.618,15.13 0.93,15.13 C4.256,15.13 7.545,14.247 10.44,12.575 C14.168,10.423 16.891,7.192 18.449,3.504 C25.238,4.165 31.465,7.676 35.544,13.116 C35.529,13.204 35.513,13.292 35.5,13.38 C35.128,13.519 34.759,13.682 34.404,13.888 C30.936,15.889 29.748,20.324 31.751,23.791 C33.514,26.845 37.165,28.127 40.379,27.022 C40.428,29.024 40.224,31.042 39.766,33.039 C38.952,32.928 38.125,32.871 37.292,32.871 C34.059,32.871 30.863,33.73 28.047,35.355 C23.764,37.829 20.699,41.823 19.418,46.602 C18.963,48.301 18.758,50.027 18.788,51.738 C17.916,51.834 17.04,51.885 16.159,51.885 C13.083,51.885 10.086,51.294 7.3,50.202 C7.412,49.425 7.277,48.608 6.853,47.876 C5.853,46.143 3.636,45.548 1.904,46.55 C1.728,46.651 1.568,46.766 1.417,46.891 C0.93,46.519 0.457,46.126 0,45.716 L0,47.149 C0.226,47.337 0.457,47.521 0.688,47.7 C0.331,48.245 0.127,48.875 0.097,49.522 C0.064,49.524 0.032,49.526 0,49.527 L0,50.621 C0.07,50.617 0.142,50.616 0.214,50.614 C0.294,50.917 0.412,51.216 0.576,51.501 C1.577,53.234 3.794,53.829 5.528,52.828 C6.066,52.517 6.494,52.089 6.798,51.594 C10.819,52.996 14.291,55.797 16.475,59.578 C19.259,64.403 19.546,69.995 17.739,74.848 C17.198,74.813 16.655,74.794 16.112,74.794 C11.691,74.794 7.319,75.969 3.469,78.191 C2.226,78.91 1.071,79.723 0,80.607 L0,82.033 C1.213,80.952 2.551,79.977 4.013,79.133 C7.697,77.006 11.881,75.882 16.112,75.882 C16.507,75.882 16.904,75.895 17.298,75.914 C15.807,79.249 13.296,82.163 9.897,84.125 C7.165,85.702 4.064,86.535 0.93,86.535 C0.618,86.535 0.308,86.52 0,86.504 L0,87.597 C0.308,87.612 0.618,87.623 0.93,87.623 C4.256,87.623 7.545,86.739 10.44,85.067 C14.168,82.915 16.891,79.685 18.449,75.996 C25.238,76.658 31.465,80.168 35.544,85.608 C35.529,85.696 35.513,85.784 35.5,85.872 C35.128,86.011 34.759,86.175 34.404,86.38 C30.936,88.381 29.748,92.815 31.751,96.283 C33.514,99.337 37.165,100.619 40.379,99.514 C40.428,101.516 40.224,103.534 39.766,105.531 C38.952,105.42 38.125,105.363 37.292,105.363 C34.059,105.363 30.863,106.222 28.047,107.848 C23.764,110.321 20.699,114.315 19.418,119.094 C18.963,120.793 18.758,122.519 18.788,124.23 C17.916,124.327 17.04,124.377 16.159,124.377 C13.083,124.377 10.086,123.788 7.3,122.693 C7.412,121.918 7.277,121.1 6.853,120.368 C5.853,118.635 3.636,118.041 1.904,119.042 C1.728,119.143 1.568,119.259 1.417,119.382 C0.93,119.011 0.457,118.618 0,118.209 L0,119.642 C0.226,119.83 0.457,120.013 0.688,120.192 C0.331,120.737 0.127,121.367 0.097,122.014 C0.064,122.016 0.032,122.018 0,122.02 L0,123.113 C0.07,123.109 0.142,123.108 0.214,123.105 C0.294,123.409 0.412,123.708 0.576,123.993 C1.577,125.726 3.794,126.321 5.528,125.319 C6.066,125.009 6.494,124.581 6.798,124.087 C10.819,125.488 14.291,128.289 16.475,132.07 C18.82,136.131 19.391,140.734 18.436,144.984 L19.549,144.984 C20.488,140.544 19.859,135.757 17.417,131.526 C15.848,128.81 13.652,126.57 11.073,124.945 C12.73,125.287 14.434,125.465 16.159,125.465 C17.055,125.465 17.948,125.415 18.836,125.319 C19.044,128.045 19.861,130.712 21.27,133.15 C24.568,138.864 30.721,142.414 37.328,142.414 C38.835,142.414 40.332,142.219 41.79,141.855 C41.816,141.905 41.838,141.957 41.867,142.007 C42.869,143.74 45.084,144.335 46.818,143.333 C48.426,142.405 49.053,140.431 48.335,138.768 C55.797,133.245 58.099,122.854 53.35,114.626 L53.35,114.626 Z"/>
    <path d="M21.874,12.221 C22.742,11.72 23.038,10.612 22.538,9.745 C22.037,8.878 20.929,8.581 20.063,9.082 C19.196,9.582 18.897,10.69 19.398,11.557 C19.899,12.424 21.008,12.721 21.874,12.221"/>
  </g>
</svg>
