<svg xmlns="http://www.w3.org/2000/svg" width="73" height="73" viewBox="0 0 73 73">
  <g fill="#FFFFFE" fill-rule="evenodd" transform="translate(-450 -5)">
    <polyline points="479.764 34.649 485.957 28.455 479.764 34.649"/>
    <polyline points="507.189 7.223 485.957 28.455 488.008 30.505 513.514 5 513.513 5 509.24 9.273 507.189 7.223"/>
    <polyline points="519.106 67.798 485.957 100.947 488.008 102.997 509.24 81.765 507.189 79.715 519.106 67.798"/>
    <polyline points="509.24 9.273 513.513 5 509.412 5 507.189 7.223 509.24 9.273"/>
    <polyline points="552.255 34.649 507.189 79.715 509.24 81.765 560.499 30.505 558.448 28.455 552.255 34.649"/>
    <polyline points="481.814 36.699 488.008 30.505 485.957 28.455 450.017 64.396 450.017 68.496 481.814 36.699"/>
    <polyline points="456.185 11.069 462.254 5 462.252 5 456.184 11.069 456.185 11.069"/>
    <polyline points="488.256 47.389 467.023 68.621 469.073 70.67 456.184 83.56 456.185 83.561 507.443 32.302 507.442 32.301 490.306 49.438 488.256 47.389"/>
    <polyline points="480.096 12.784 468.997 23.882 468.999 23.884 487.884 5 483.783 5 478.047 10.735 480.096 12.784"/>
    <polyline points="499.279 61.995 478.047 83.227 480.096 85.275 468.997 96.373 468.999 96.375 520.259 45.117 520.256 45.114 501.327 64.042 499.279 61.995"/>
    <polyline points="550.539 10.735 550.536 10.733 499.277 61.993 499.279 61.995 501.327 64.042 552.587 12.784 550.539 10.735"/>
    <polyline points="480.096 12.784 478.047 10.735 478.045 10.733 450.017 38.761 450.017 42.861 480.096 12.784"/>
    <polyline points="488.256 47.389 490.306 49.438 534.743 5 530.643 5 488.255 47.388 488.256 47.389"/>
    <polyline points="462.252 5 458.151 5 450.017 13.134 450.017 17.235 462.252 5"/>
    <polyline points="507.443 104.792 541.564 70.67 539.515 68.621 539.515 68.62 488.255 119.879 490.306 121.93 507.443 104.792"/>
    <polyline points="469.073 70.67 467.023 68.621 467.022 68.62 450.017 85.626 450.017 89.727 469.073 70.67"/>
    <polyline points="485.713 38.423 491.906 32.23 492.932 33.255 514.164 12.022 513.139 10.998 519.137 5 485.713 38.423"/>
    <polyline points="536.973 59.656 536.972 59.656 485.713 110.915 491.906 104.722 492.932 105.747 514.164 84.514 513.139 83.489 536.973 59.656"/>
    <polyline points="464.48 59.656 450.017 74.119 450.017 74.12 464.481 59.656 464.48 59.656"/>
    <polyline points="514.164 12.022 514.164 12.023 521.188 5 519.137 5 513.139 10.998 514.164 12.022"/>
    <polyline points="558.205 38.423 513.139 83.489 514.164 84.514 514.164 84.515 565.423 33.255 564.398 32.23 558.205 38.423"/>
    <polyline points="492.932 33.255 491.906 32.23 450.017 74.12 450.017 76.17 492.932 33.255"/>
    <polyline points="461.108 13.819 469.928 5 469.926 5 461.107 13.818 461.108 13.819"/>
    <polyline points="494.205 51.164 472.974 72.396 473.997 73.42 461.107 86.31 461.108 86.31 512.368 35.051 512.367 35.05 495.229 52.188 494.205 51.164"/>
    <polyline points="485.02 15.533 473.922 26.631 473.924 26.634 495.557 5 493.507 5 483.997 14.51 485.02 15.533"/>
    <polyline points="505.229 65.769 483.997 87.002 485.02 88.024 473.922 99.123 473.924 99.125 525.183 47.866 525.181 47.864 506.252 66.792 505.229 65.769"/>
    <polyline points="452.688 47.864 450.017 50.536 450.017 50.54 452.691 47.866 452.688 47.864"/>
    <polyline points="556.488 14.51 556.486 14.508 505.227 65.767 505.229 65.769 506.252 66.792 557.511 15.533 556.488 14.51"/>
    <polyline points="473.922 26.631 485.02 15.533 483.997 14.51 483.994 14.508 450.017 48.485 450.017 50.536 473.922 26.631"/>
    <polyline points="494.205 51.164 495.229 52.188 542.417 5 540.367 5 494.205 51.163 494.205 51.164"/>
    <polyline points="469.926 5 467.875 5 450.017 22.858 450.017 24.909 469.926 5"/>
    <polyline points="512.367 107.542 546.489 73.42 545.465 72.396 545.464 72.394 494.205 123.654 494.205 123.655 495.229 124.679 512.367 107.542"/>
    <polyline points="473.997 73.42 472.974 72.396 472.973 72.394 450.017 95.35 450.017 97.4 473.997 73.42"/>
    <polyline points="491.769 38.68 497.962 32.486 498.475 32.999 519.707 11.766 519.194 11.254 525.449 5 525.448 5 491.769 38.68"/>
    <polyline points="452.957 5 450.017 7.94 452.957 5"/>
    <polyline points="543.028 59.912 543.027 59.912 491.769 111.171 497.962 104.978 498.475 105.49 519.707 84.258 519.194 83.746 543.028 59.912"/>
    <polyline points="470.536 59.912 450.017 80.431 450.017 80.432 470.537 59.912 470.536 59.912"/>
    <polyline points="519.707 11.766 519.707 11.767 526.474 5 525.449 5 519.194 11.254 519.707 11.766"/>
    <polyline points="452.957 5 450.017 7.94 450.017 8.965 453.982 5 452.957 5"/>
    <polyline points="564.26 38.68 519.194 83.746 519.707 84.258 570.966 32.999 570.454 32.486 564.26 38.68"/>
    <polyline points="498.475 32.999 497.962 32.486 450.017 80.432 450.017 81.457 498.475 32.999"/>
    <polyline points="466.652 13.563 475.215 5 475.213 5 466.65 13.562 466.652 13.563"/>
    <polyline points="500.261 51.42 479.029 72.652 479.54 73.164 466.65 86.053 466.652 86.054 517.911 34.795 517.91 34.794 500.772 51.932 500.261 51.42"/>
    <polyline points="490.563 15.277 479.465 26.375 479.467 26.377 500.844 5 499.819 5 490.053 14.767 490.563 15.277"/>
    <polyline points="511.284 66.026 490.053 87.258 490.563 87.769 479.465 98.867 479.467 98.869 530.726 47.61 530.724 47.607 511.795 66.536 511.284 66.026"/>
    <polyline points="458.231 47.607 450.017 55.822 450.017 55.827 458.234 47.61 458.231 47.607"/>
    <polyline points="562.544 14.767 562.542 14.765 511.282 66.023 511.284 66.026 511.795 66.536 563.055 15.277 562.544 14.767"/>
    <polyline points="479.465 26.375 490.563 15.277 490.053 14.767 490.05 14.765 450.017 54.797 450.017 55.822 479.465 26.375"/>
    <polyline points="500.261 51.42 500.772 51.932 547.704 5 546.679 5 500.26 51.419 500.261 51.42"/>
    <polyline points="475.213 5 474.188 5 450.017 29.17 450.017 30.195 475.213 5"/>
    <polyline points="517.91 107.286 552.032 73.164 551.521 72.652 551.52 72.651 500.26 123.911 500.261 123.911 500.772 124.423 517.91 107.286"/>
    <polyline points="479.54 73.164 479.029 72.652 479.028 72.651 450.017 101.662 450.017 102.687 479.54 73.164"/>
  </g>
</svg>
