<svg xmlns="http://www.w3.org/2000/svg" width="73" height="73" viewBox="0 0 73 73">
  <g fill="#FFFFFE" fill-rule="evenodd" transform="translate(.017)">
    <polyline points="54.52 29.407 70.555 13.371 68.066 10.881 52.03 26.917 54.52 29.407"/>
    <polyline points="18.274 29.407 34.31 13.371 31.821 10.881 15.785 26.917 18.274 29.407"/>
    <polyline points="68.066 47.127 52.03 63.163 54.52 65.652 70.555 49.617 68.066 47.127"/>
    <polyline points="31.821 47.127 15.785 63.163 18.274 65.652 34.31 49.617 31.821 47.127"/>
    <polyline points="54.52 20.346 74.866 0 69.885 0 52.03 17.856 54.52 20.346"/>
    <polyline points="18.274 20.346 38.62 0 33.64 0 15.785 17.856 18.274 20.346"/>
    <polyline points="0 0 0 2.374 2.374 0 0 0"/>
    <polyline points="54.52 56.591 75.117 35.995 72.627 33.505 52.03 54.102 54.52 56.591"/>
    <polyline points="18.274 56.591 38.871 35.995 36.381 33.505 15.785 54.102 18.274 56.591"/>
    <polyline points=".135 33.505 0 33.64 0 38.62 2.626 35.995 .135 33.505"/>
    <polyline points="54.52 92.837 75.117 72.24 72.627 69.75 52.03 90.347 54.52 92.837"/>
    <polyline points="18.274 92.837 38.871 72.24 36.381 69.75 15.785 90.347 18.274 92.837"/>
    <polyline points=".135 69.75 0 69.886 0 74.865 2.626 72.24 .135 69.75"/>
    <polyline points="76.795 11.281 65.698 22.377 68.188 24.867 79.285 13.771 76.795 11.281"/>
    <polyline points="40.549 11.281 29.453 22.377 31.942 24.867 43.039 13.771 40.549 11.281"/>
    <polyline points="4.303 11.281 0 15.584 0 20.564 6.794 13.771 4.303 11.281"/>
    <polyline points="79.285 50.016 76.795 47.526 65.698 58.623 68.188 61.113 79.285 50.016"/>
    <polyline points="43.039 50.016 40.549 47.526 29.453 58.623 31.942 61.113 43.039 50.016"/>
    <polyline points="4.303 47.526 0 51.83 0 56.81 6.794 50.016 4.303 47.526"/>
    <polyline points="59.27 6.524 65.795 0 60.815 0 56.78 4.035 59.27 6.524"/>
    <polyline points="23.024 6.524 29.548 0 24.569 0 20.535 4.035 23.024 6.524"/>
    <polyline points="59.27 42.771 70.367 31.674 67.877 29.184 56.78 40.281 59.27 42.771"/>
    <polyline points="34.121 31.674 31.631 29.184 20.535 40.281 23.024 42.771 34.121 31.674"/>
    <polyline points="70.367 67.919 67.877 65.43 56.78 76.526 59.27 79.016 70.367 67.919"/>
    <polyline points="34.121 67.919 31.631 65.43 20.535 76.526 23.024 79.016 34.121 67.919"/>
    <polyline points="56.597 30.969 59.087 33.459 65.698 26.849 63.209 24.358 56.597 30.969"/>
    <polyline points="22.841 33.459 29.453 26.849 26.962 24.358 20.352 30.969 22.841 33.459"/>
    <polyline points="59.087 69.705 65.698 63.094 63.209 60.604 56.597 67.215 59.087 69.705"/>
    <polyline points="22.841 69.705 29.453 63.094 26.962 60.604 20.352 67.215 22.841 69.705"/>
    <polyline points="57.006 8.791 48.215 0 43.236 0 54.517 11.281 57.006 8.791"/>
    <polyline points="20.761 8.791 11.97 0 6.991 0 18.271 11.281 20.761 8.791"/>
    <polyline points="93.253 45.037 72.643 24.427 70.153 26.917 90.763 47.527 93.253 45.037"/>
    <polyline points="57.006 45.037 36.397 24.427 33.908 26.917 54.517 47.527 57.006 45.037"/>
    <polyline points="20.761 45.037 .152 24.427 0 24.579 0 29.255 18.271 47.527 20.761 45.037"/>
    <polyline points="93.253 81.283 72.643 60.673 70.153 63.163 90.763 83.772 93.253 81.283"/>
    <polyline points="57.006 81.283 36.397 60.673 33.908 63.163 54.517 83.772 57.006 81.283"/>
    <polyline points="20.761 81.283 .152 60.673 0 60.825 0 65.501 18.271 83.772 20.761 81.283"/>
    <polyline points="56.737 0 52.297 0 54.517 2.22 56.737 0"/>
    <polyline points="20.491 0 16.052 0 18.271 2.22 20.491 0"/>
    <polyline points="38.644 22.592 54.517 38.465 57.006 35.976 41.133 20.102 38.644 22.592"/>
    <polyline points="4.887 20.102 2.398 22.592 18.271 38.465 20.761 35.976 4.887 20.102"/>
    <polyline points="38.644 58.837 54.517 74.711 57.006 72.221 41.133 56.348 38.644 58.837"/>
    <polyline points="4.887 56.348 2.398 58.837 18.271 74.711 20.761 72.221 4.887 56.348"/>
    <polyline points="52.235 13.526 40.409 1.699 37.919 4.189 49.745 16.016 52.235 13.526"/>
    <polyline points="15.989 13.526 4.163 1.699 1.673 4.189 13.5 16.016 15.989 13.526"/>
    <polyline points="49.745 52.261 52.235 49.771 40.409 37.945 37.919 40.435 49.745 52.261"/>
    <polyline points="15.989 49.771 4.163 37.945 1.673 40.435 13.5 52.261 15.989 49.771"/>
    <polyline points="74.296 9.076 71.746 6.524 69.255 9.014 71.807 11.565 74.296 9.076"/>
    <polyline points="38.051 9.076 35.5 6.524 33.01 9.014 35.561 11.565 38.051 9.076"/>
    <polyline points="0 7.271 0 10.881 1.805 9.076 0 7.271"/>
    <polyline points="74.296 45.321 71.746 42.77 69.255 45.26 71.807 47.811 74.296 45.321"/>
    <polyline points="33.01 45.26 35.561 47.811 38.051 45.321 35.5 42.77 33.01 45.26"/>
    <polyline points="0 43.516 0 47.126 1.805 45.321 0 43.516"/>
    <polyline points="42.477 17.931 49.907 25.361 52.396 22.871 44.966 15.441 42.477 17.931"/>
    <polyline points="16.15 22.871 8.72 15.441 6.231 17.931 13.661 25.361 16.15 22.871"/>
    <polyline points="42.477 54.176 49.907 61.606 52.396 59.117 44.966 51.687 42.477 54.176"/>
    <polyline points="16.15 59.117 8.72 51.687 6.231 54.176 13.661 61.606 16.15 59.117"/>
  </g>
</svg>
