<svg xmlns="http://www.w3.org/2000/svg" width="73" height="73" viewBox="0 0 73 73">
  <g fill="#FFF" transform="translate(0 -3.724)">
    <polygon points="0 60.111 9.99 60.111 9.99 59.038 0 59.038"/>
    <polygon points="63.01 60.111 73 60.111 73 59.038 63.01 59.038"/>
    <polygon points="0 19.321 16 19.321 16 18.248 0 18.248"/>
    <polygon points="57 19.321 73 19.321 73 18.248 57 18.248"/>
    <polygon points="0 56.891 9.99 56.891 9.99 55.817 0 55.817"/>
    <polygon points="63.01 56.891 73 56.891 73 55.817 63.01 55.817"/>
    <polygon points="0 16.101 16 16.101 16 15.028 0 15.028"/>
    <polygon points="57 16.101 73 16.101 73 15.028 57 15.028"/>
    <polygon points="0 48.303 24 48.303 24 47.23 0 47.23"/>
    <polygon points="49 48.303 73 48.303 73 47.23 49 47.23"/>
    <polygon points="49 27.909 73 27.909 73 26.835 49 26.835"/>
    <polygon points="49 68.698 73 68.698 73 67.625 49 67.625"/>
    <polygon points="49 24.688 73 24.688 73 23.615 49 23.615"/>
    <polygon points="49 65.478 73 65.478 73 64.405 49 64.405"/>
    <polygon points="0 53.671 9.99 53.671 9.99 52.597 0 52.597"/>
    <polygon points="63.01 53.671 73 53.671 73 52.597 63.01 52.597"/>
    <polygon points="20.5 33.276 52.5 33.276 52.5 32.202 20.5 32.202"/>
    <polygon points="20.5 36.91 52.5 36.91 52.5 34.898 20.5 34.898"/>
    <polygon points="20.5 39.605 52.5 39.605 52.5 38.532 20.5 38.532"/>
    <polygon points="0 12.881 16 12.881 16 11.808 0 11.808"/>
    <polygon points="57 12.881 73 12.881 73 11.808 57 11.808"/>
    <polygon points="0 45.083 24 45.083 24 44.01 0 44.01"/>
    <polygon points="49 45.083 73 45.083 73 44.01 49 44.01"/>
    <polygon points="0 24.688 24 24.688 24 23.615 0 23.615"/>
    <polygon points="0 65.478 23.125 65.478 23.125 64.405 0 64.405"/>
    <polygon points="0 27.909 24 27.909 24 26.835 0 26.835"/>
    <polygon points="0 68.698 23.125 68.698 23.125 67.625 0 67.625"/>
    <polygon points="20.5 4.707 52.5 4.707 52.5 2.695 20.5 2.695"/>
    <polygon points="20.5 7.403 52.5 7.403 52.5 6.329 20.5 6.329"/>
    <polygon points="20.5 74.065 52.5 74.065 52.5 72.992 20.5 72.992"/>
    <polygon points="20.5 77.699 52.5 77.699 52.5 75.687 20.5 75.687"/>
  </g>
</svg>
