<svg xmlns="http://www.w3.org/2000/svg" width="73" height="73" viewBox="0 0 73 73">
  <g fill="#FFF" fill-rule="evenodd" transform="translate(-.441 -.393)">
    <path d="M74.5715 38.3725C72.6955 38.3725 70.9505 37.3645 70.0125 35.7435 68.5655 33.2335 69.4285 30.0135 71.9385 28.5645 72.7365 28.1025 73.6435 27.8585 74.5615 27.8585 76.4365 27.8585 78.1815 28.8665 79.1175 30.4885 80.5655 32.9975 79.7035 36.2185 77.1945 37.6675 76.3935 38.1285 75.4885 38.3725 74.5715 38.3725zM79.4305 30.3075C78.4305 28.5735 76.5635 27.4965 74.5615 27.4965 73.5815 27.4965 72.6105 27.7575 71.7565 28.2505 69.0745 29.7985 68.1515 33.2415 69.6995 35.9245 70.7015 37.6585 72.5685 38.7355 74.5715 38.7355 75.5515 38.7355 76.5225 38.4735 77.3745 37.9805 80.0575 36.4325 80.9805 32.9895 79.4305 30.3075L79.4305 30.3075zM4.8835 37.9805C7.5665 36.4325 8.4885 32.9895 6.9395 30.3075 5.9395 28.5735 4.0735 27.4965 2.0685 27.4965 1.5165 27.4965.9685 27.5815.4415 27.7425L.4415 28.1215C.9675 27.9495 1.5165 27.8585 2.0685 27.8585 3.9445 27.8585 5.6895 28.8665 6.6265 30.4885 8.0755 32.9975 7.2125 36.2185 4.7015 37.6675 3.9035 38.1285 2.9955 38.3725 2.0785 38.3725 1.5165 38.3725.9645 38.2805.4415 38.1085L.4415 38.4865C.9675 38.6475 1.5165 38.7355 2.0785 38.7355 3.0605 38.7355 4.0275 38.4735 4.8835 37.9805M56.1055 3.3835C57.4005 3.3835 58.6825 3.0385 59.8135 2.3865 60.7155 1.8645 61.4645 1.1805 62.0505.3925L61.5865.3925C61.0565 1.0495 60.4045 1.6255 59.6315 2.0735 58.5565 2.6935 57.3365 3.0215 56.1055 3.0215 53.9565 3.0215 51.9365 2.0335 50.6045.3925L50.1445.3925C51.5375 2.2545 53.7475 3.3835 56.1055 3.3835M49.9785 71.9775C48.0285 68.6035 49.1885 64.2725 52.5645 62.3245 53.6395 61.7045 54.8585 61.3755 56.0905 61.3755 58.6105 61.3755 60.9585 62.7305 62.2175 64.9115 64.1655 68.2855 63.0055 72.6165 59.6315 74.5645 58.5565 75.1845 57.3365 75.5125 56.1055 75.5125 53.5835 75.5125 51.2375 74.1585 49.9785 71.9775zM59.8135 74.8785C63.3605 72.8295 64.5805 68.2785 62.5325 64.7305 61.2085 62.4375 58.7415 61.0145 56.0905 61.0145 54.7945 61.0145 53.5135 61.3585 52.3825 62.0105 48.8355 64.0585 47.6155 68.6115 49.6635 72.1595 50.9865 74.4515 53.4545 75.8745 56.1055 75.8745 57.4005 75.8745 58.6825 75.5295 59.8135 74.8785L59.8135 74.8785zM26.4455 52.9995C25.4965 51.3555 26.0625 49.2445 27.7055 48.2955 28.2295 47.9945 28.8235 47.8345 29.4245 47.8345 30.6495 47.8345 31.7935 48.4945 32.4085 49.5565 32.8685 50.3535 32.9915 51.2805 32.7525 52.1685 32.5145 53.0575 31.9445 53.7995 31.1475 54.2595 30.6255 54.5615 30.0305 54.7215 29.4305 54.7215 28.2015 54.7215 27.0595 54.0615 26.4455 52.9995zM31.3295 54.5735C32.2095 54.0655 32.8395 53.2445 33.1015 52.2635 33.3655 51.2805 33.2305 50.2555 32.7225 49.3755 32.0435 48.2015 30.7805 47.4715 29.4245 47.4715 28.7595 47.4715 28.1035 47.6485 27.5245 47.9825 25.7065 49.0315 25.0825 51.3635 26.1325 53.1805 26.8085 54.3535 28.0745 55.0845 29.4305 55.0845 30.0945 55.0845 30.7515 54.9075 31.3295 54.5735L31.3295 54.5735zM40.5495 12.2125C40.4125 11.8615 40.2455 11.5175 40.0515 11.1805L39.7305 11.3485 39.4265 11.5505C39.5995 11.8475 39.7505 12.1605 39.8745 12.4765L40.5495 12.2125M40.3315 14.4765L41.0565 14.4225C41.0255 14.0455 40.9695 13.6665 40.8865 13.2985L40.1775 13.4605C40.2535 13.7935 40.3055 14.1355 40.3315 14.4765M40.1765 16.5225L40.8835 16.6845C40.9685 16.3155 41.0255 15.9375 41.0535 15.5595L40.3305 15.5055C40.3055 15.8465 40.2535 16.1895 40.1765 16.5225M32.3365 22.5195C32.7115 22.5765 33.0945 22.6045 33.4705 22.6045L33.4705 21.8795C33.1295 21.8795 32.7855 21.8535 32.4455 21.8025L32.3365 22.5195M31.4175 8.4165L31.2025 7.7245C30.8405 7.8375 30.4845 7.9785 30.1445 8.1435L30.4605 8.7955C30.7685 8.6465 31.0905 8.5185 31.4175 8.4165M33.4455 8.1055L33.4445 7.3815C33.0625 7.3815 32.6815 7.4115 32.3105 7.4685L32.4185 8.1855C32.7555 8.1335 33.1015 8.1065 33.4455 8.1055M26.8645 11.2015L27.4945 11.5615C27.6645 11.2645 27.8575 10.9775 28.0695 10.7095L27.5015 10.2595C27.2675 10.5555 27.0515 10.8715 26.8645 11.2015M35.6875 7.7145C35.3265 7.6035 34.9525 7.5195 34.5775 7.4635L34.4705 8.1805C34.8105 8.2305 35.1475 8.3075 35.4735 8.4075L35.6875 7.7145M28.2725 9.4245L28.7665 9.9555C29.0175 9.7235 29.2885 9.5075 29.5705 9.3125L29.1625 8.7145C28.8485 8.9285 28.5495 9.1675 28.2725 9.4245M34.4975 21.8025L34.6065 22.5195C34.9815 22.4625 35.3535 22.3765 35.7155 22.2655L35.4995 21.5725C35.1755 21.6735 34.8375 21.7515 34.4975 21.8025M38.1525 20.0385L38.6445 20.5695C38.9225 20.3125 39.1815 20.0315 39.4185 19.7355L38.8515 19.2845C38.6385 19.5525 38.4025 19.8055 38.1525 20.0385M38.8335 10.6815L39.3995 10.2275C39.1625 9.9325 38.9025 9.6525 38.6245 9.3955L38.1315 9.9285C38.3835 10.1605 38.6195 10.4135 38.8335 10.6815M37.7335 8.6905C37.4195 8.4785 37.0895 8.2885 36.7455 8.1255L36.4345 8.7795C36.7435 8.9275 37.0435 9.1005 37.3265 9.2895L37.7335 8.6905M36.9065 20.9555C36.7585 21.0415 36.6075 21.1215 36.4555 21.1945L36.7725 21.8475C36.9395 21.7655 37.1055 21.6785 37.2695 21.5845 37.4365 21.4865 37.5985 21.3855 37.7555 21.2785L37.3485 20.6795C37.2045 20.7755 37.0585 20.8685 36.9065 20.9555M39.4295 18.4345L40.0575 18.7955C40.2465 18.4675 40.4125 18.1235 40.5495 17.7705L39.8765 17.5075C39.7505 17.8255 39.6005 18.1375 39.4295 18.4345M68.1225 13.2315L67.6645 12.2465C67.3415 12.3965 67.0125 12.5385 66.6855 12.6675L67.0865 13.6785C67.4345 13.5405 67.7825 13.3905 68.1225 13.2315M44.1885 6.4665L45.0985 5.8675C44.9005 5.5705 44.7125 5.2665 44.5375 4.9615L43.5955 5.5065C43.7815 5.8285 43.9815 6.1525 44.1885 6.4665M45.5425 8.2725L46.3705 7.5705C46.1425 7.3005 45.9195 7.0205 45.7105 6.7385L44.8385 7.3895C45.0625 7.6885 45.2985 7.9855 45.5425 8.2725M47.0975 9.9065L47.8395 9.1105C47.5805 8.8715 47.3275 8.6195 47.0815 8.3625L46.2945 9.1135C46.5545 9.3855 46.8245 9.6525 47.0975 9.9065M59.3915 13.9115C59.0355 13.8965 58.6785 13.8725 58.3295 13.8375L58.2225 14.9195C58.5915 14.9575 58.9705 14.9835 59.3475 14.9975L59.3915 13.9115M66.0235 14.0635L65.6855 13.0315C65.3515 13.1405 65.0085 13.2425 64.6635 13.3335L64.9415 14.3845C65.3075 14.2885 65.6725 14.1805 66.0235 14.0635M57.2725 13.7015C56.9205 13.6455 56.5695 13.5795 56.2285 13.5025L55.9925 14.5645C56.3555 14.6455 56.7295 14.7165 57.1035 14.7755L57.2725 13.7015M43.0585 4.5145L44.0295 4.0235C43.8695 3.7075 43.7185 3.3825 43.5785 3.0595L42.5795 3.4905C42.7275 3.8335 42.8885 4.1785 43.0585 4.5145M69.6125 12.4565C69.7795 12.3605 69.9435 12.2605 70.1095 12.1595L69.5385 11.2345C69.3835 11.3305 69.2265 11.4235 69.0685 11.5145 68.9185 11.6015 68.7665 11.6865 68.6175 11.7675L69.1325 12.7255C69.2935 12.6385 69.4535 12.5485 69.6125 12.4565M62.7295 14.8305C63.1025 14.7785 63.4755 14.7145 63.8415 14.6415L63.6275 13.5755C63.2825 13.6435 62.9295 13.7035 62.5775 13.7535L62.7295 14.8305M43.1845 2.0695C43.0645 1.7385 42.9525 1.3975 42.8505 1.0585L41.8095 1.3685C41.9165 1.7285 42.0365 2.0895 42.1625 2.4405L43.1845 2.0695M52.2125 12.1085L51.7365 13.0865C52.0735 13.2495 52.4185 13.4055 52.7665 13.5495L53.1835 12.5455C52.8555 12.4095 52.5285 12.2625 52.2125 12.1085M71.9565 10.8635L71.2795 10.0115C71.0015 10.2325 70.7145 10.4465 70.4275 10.6475L71.0515 11.5385C71.3565 11.3245 71.6605 11.0975 71.9565 10.8635M72.8185 10.1345C73.0985 9.8845 73.3735 9.6225 73.6355 9.3565L72.8625 8.5925C72.6165 8.8425 72.3565 9.0885 72.0935 9.3245L72.8185 10.1345M51.2695 11.6155C50.9615 11.4415 50.6545 11.2565 50.3565 11.0665L49.7705 11.9815C50.0835 12.1835 50.4095 12.3795 50.7365 12.5635L51.2695 11.6155M49.4785 10.4645C49.1915 10.2555 48.9105 10.0365 48.6395 9.8125L47.9465 10.6505C48.2335 10.8885 48.5335 11.1205 48.8365 11.3435L49.4785 10.4645M.4415 8.6605L.4415 10.0255C.6815 9.8075.9195 9.5855 1.1445 9.3565L.4415 8.6605M4.9595 3.8015L3.9665 3.3545C3.8225 3.6755 3.6675 3.9975 3.5025 4.3115L4.4645 4.8165C4.6385 4.4835 4.8055 4.1425 4.9595 3.8015M2.4035 6.1345L3.3015 6.7495C3.5125 6.4415 3.7175 6.1215 3.9125 5.8005L2.9795 5.2395C2.7965 5.5425 2.6045 5.8445 2.4035 6.1345M6.1195.3925L5.2155.3925 6.0725.6075C6.0885.5365 6.1035.4635 6.1195.3925M48.8665 54.4025L48.1895 53.5525C47.8975 53.7865 47.6065 54.0315 47.3275 54.2825L48.0555 55.0905C48.3165 54.8545 48.5905 54.6225 48.8665 54.4025M58.5345 49.4465C58.1615 49.4765 57.7845 49.5185 57.4115 49.5715L57.5635 50.6475C57.9155 50.5985 58.2715 50.5585 58.6225 50.5305L58.5345 49.4465M44.3595 57.6705L45.2575 58.2855C45.4575 57.9935 45.6685 57.7045 45.8845 57.4255L45.0245 56.7585C44.7945 57.0545 44.5715 57.3615 44.3595 57.6705M50.0355 52.2525C49.7155 52.4515 49.3975 52.6605 49.0935 52.8755L49.7185 53.7645C50.0075 53.5615 50.3055 53.3635 50.6075 53.1775L50.0355 52.2525M52.0195 51.1775C51.6765 51.3385 51.3385 51.5095 51.0105 51.6865L51.5305 52.6425C51.8365 52.4755 52.1565 52.3135 52.4795 52.1615L52.0195 51.1775M56.2985 49.7625C55.9295 49.8375 55.5585 49.9245 55.1985 50.0195L55.4785 51.0715C55.8175 50.9805 56.1665 50.8995 56.5155 50.8285L56.2985 49.7625M54.1165 50.3425C53.7595 50.4605 53.4035 50.5905 53.0545 50.7295L53.4575 51.7395C53.7855 51.6085 54.1225 51.4855 54.4575 51.3745L54.1165 50.3425M42.2195 70.4235C42.1815 70.0715 42.1515 69.7155 42.1355 69.3625L41.0495 69.4165C41.0685 69.7905 41.0975 70.1695 41.1405 70.5425L42.2195 70.4235M42.1545 67.2335L41.0695 67.1595C41.0435 67.5325 41.0285 67.9125 41.0255 68.2885L42.1125 68.2975C42.1155 67.9435 42.1295 67.5855 42.1545 67.2335M42.5795 72.5205C42.4995 72.1765 42.4275 71.8255 42.3685 71.4775L41.2965 71.6615C41.3595 72.0305 41.4345 72.4025 41.5205 72.7675L42.5795 72.5205M42.2735 61.6645L43.2915 62.0515C43.4155 61.7215 43.5535 61.3905 43.6985 61.0675L42.7055 60.6215C42.5525 60.9645 42.4085 61.3145 42.2735 61.6645M42.9415 63.0585L41.9045 62.7315C41.7915 63.0895 41.6895 63.4555 41.5985 63.8185L42.6525 64.0825C42.7395 63.7395 42.8355 63.3955 42.9415 63.0585M41.1795 66.0355L42.2585 66.1745C42.3045 65.8235 42.3605 65.4695 42.4255 65.1225L41.3555 64.9205C41.2865 65.2885 41.2285 65.6635 41.1795 66.0355M43.2005 59.6065L44.1635 60.1095C44.3255 59.7975 44.5005 59.4845 44.6825 59.1815L43.7515 58.6215C43.5595 58.9445 43.3715 59.2755 43.2005 59.6065M73.0675 56.0155C73.3125 56.2695 73.5505 56.5355 73.7805 56.8055L74.6085 56.1025C74.3665 55.8165 74.1115 55.5345 73.8545 55.2635L73.0675 56.0155M47.2865 55.8255L46.5115 55.0615C46.2515 55.3255 45.9915 55.6035 45.7425 55.8875L46.5615 56.6045C46.7955 56.3365 47.0405 56.0735 47.2865 55.8255M72.3105 55.2685L73.0495 54.4715C72.7735 54.2145 72.4875 53.9655 72.1995 53.7285L71.5075 54.5675C71.7805 54.7915 72.0495 55.0265 72.3105 55.2685M70.6675 53.9165L71.3075 53.0375C71.0015 52.8145 70.6885 52.6005 70.3745 52.4005L69.7895 53.3155C70.0815 53.5055 70.3805 53.7075 70.6675 53.9165M6.5415 66.3745C6.5015 66.0015 6.4475 65.6255 6.3875 65.2565L5.3155 65.4385C5.3725 65.7865 5.4225 66.1405 5.4605 66.4935L6.5415 66.3745M6.6525 68.4255C6.6525 68.1185 6.6455 67.8095 6.6305 67.5015L5.5435 67.5545C5.5585 67.8445 5.5655 68.1355 5.5655 68.4265L5.5645 68.6185 6.6525 68.6305 6.6525 68.4255M.5765 56.0155C.8205 56.2695 1.0595 56.5355 1.2885 56.8055L2.1165 56.1025C1.8755 55.8165 1.6215 55.5345 1.3615 55.2635L.5765 56.0155M3.4725 57.9075C3.2665 57.5955 3.0485 57.2855 2.8215 56.9855L1.9525 57.6375C2.1655 57.9205 2.3715 58.2135 2.5665 58.5065L3.4725 57.9075M3.6605 60.3975L4.6325 59.9105C4.4645 59.5755 4.2845 59.2405 4.0955 58.9125L4.0675 58.8675 3.1265 59.4105 3.1555 59.4595C3.3305 59.7655 3.5025 60.0805 3.6605 60.3975M6.6055 69.7585L5.5215 69.6825C5.4975 70.0365 5.4605 70.3925 5.4145 70.7425L6.4945 70.8825C6.5415 70.5115 6.5795 70.1345 6.6055 69.7585M.4415 54.3695L.4415 54.5965.5585 54.4715C.5205 54.4365.4815 54.4045.4415 54.3695M6.1645 64.1495C6.0815 63.7855 5.9835 63.4175 5.8765 63.0575L4.8335 63.3655C4.9345 63.7055 5.0255 64.0515 5.1045 64.3935L6.1645 64.1495M5.5225 61.9835C5.3985 61.6325 5.2585 61.2785 5.1085 60.9335L4.1095 61.3635C4.2505 61.6885 4.3825 62.0215 4.5015 62.3535L5.5225 61.9835M6.3155 71.9965L5.2475 71.7935C5.1815 72.1405 5.1045 72.4905 5.0165 72.8335L6.0725 73.0995C6.1645 72.7345 6.2465 72.3645 6.3155 71.9965M14.2025 66.7935L14.5895 66.1805C14.2905 65.9935 13.9955 65.7925 13.7065 65.5865L13.2845 66.1755C13.5835 66.3895 13.8925 66.5985 14.2025 66.7935M12.4045 65.5025L12.8625 64.9405C12.5885 64.7185 12.3185 64.4835 12.0595 64.2445L11.5665 64.7775C11.8375 65.0275 12.1205 65.2705 12.4045 65.5025M41.3875 57.0815L40.7005 56.8515C40.5895 57.1885 40.4665 57.5245 40.3345 57.8505L41.0065 58.1215C41.1425 57.7815 41.2725 57.4315 41.3875 57.0815M42.2735 52.7505L41.5495 52.6915C41.5205 53.0425 41.4815 53.3985 41.4315 53.7495L42.1505 53.8505C42.2015 53.4865 42.2425 53.1165 42.2735 52.7505M18.2005 68.6805L18.4275 67.9935C18.0955 67.8825 17.7595 67.7595 17.4295 67.6275L17.1595 68.3005C17.5035 68.4375 17.8535 68.5655 18.2005 68.6805M20.3375 69.2505L20.4825 68.5405C20.1365 68.4705 19.7885 68.3885 19.4475 68.2975L19.2595 68.9975C19.6145 69.0925 19.9775 69.1785 20.3375 69.2505M39.4965 61.0765L38.8845 60.6895C38.6975 60.9875 38.4965 61.2845 38.2905 61.5715L38.8785 61.9945C39.0935 61.6945 39.3025 61.3855 39.4965 61.0765M41.0065 55.8325L41.7065 56.0205C41.8005 55.6675 41.8865 55.3055 41.9605 54.9425L41.2505 54.7975C41.1785 55.1455 41.0975 55.4945 41.0065 55.8325M40.5635 59.1355L39.9065 58.8255C39.7575 59.1435 39.5935 59.4625 39.4245 59.7725L40.0605 60.1215C40.2365 59.7985 40.4065 59.4675 40.5635 59.1355M10.7765 64.0035L11.2985 63.5005C11.0555 63.2465 10.8145 62.9825 10.5855 62.7135L10.0325 63.1825C10.2725 63.4635 10.5215 63.7395 10.7765 64.0035M7.6345 44.7295L6.9615 44.4605C6.8255 44.8035 6.6975 45.1525 6.5825 45.5015L7.2685 45.7295C7.3815 45.3945 7.5045 45.0585 7.6345 44.7295M6.5435 48.8325L5.8265 48.7315C5.7735 49.0955 5.7335 49.4655 5.7045 49.8325L6.4255 49.8905C6.4565 49.5375 6.4945 49.1815 6.5435 48.8325M6.9655 46.7485L6.2655 46.5625C6.1715 46.9155 6.0865 47.2775 6.0125 47.6405L6.7245 47.7845C6.7935 47.4365 6.8765 47.0885 6.9655 46.7485M8.5405 42.8065L7.9055 42.4575C7.7285 42.7795 7.5605 43.1125 7.4035 43.4455L8.0595 43.7545C8.2105 43.4345 8.3735 43.1155 8.5405 42.8065M6.6015 54.1325C6.5435 53.7845 6.4975 53.4295 6.4615 53.0775L5.7395 53.1515C5.7775 53.5175 5.8265 53.8875 5.8865 54.2505L6.6015 54.1325M7.7935 58.2075C7.6525 57.8845 7.5225 57.5515 7.4015 57.2175L6.7195 57.4635C6.8455 57.8105 6.9815 58.1575 7.1265 58.4935L7.7935 58.2075M8.1225 60.4755L8.7325 60.0865C8.5605 59.7865 8.3955 59.4785 8.2395 59.1725L7.5935 59.4975C7.7535 59.8175 7.9265 60.1375 8.1055 60.4465L8.1225 60.4755M9.9205 61.8825C9.7085 61.5985 9.5015 61.3065 9.3075 61.0125L8.7025 61.4135C8.9065 61.7185 9.1195 62.0235 9.3425 62.3175L9.9205 61.8825M6.8065 55.1765L6.0985 55.3375C6.1795 55.6975 6.2725 56.0575 6.3765 56.4095L7.0725 56.2065C6.9745 55.8685 6.8835 55.5215 6.8065 55.1765M39.2615 41.1185C39.0575 40.8125 38.8435 40.5085 38.6215 40.2155L38.0415 40.6515C38.2545 40.9335 38.4615 41.2255 38.6565 41.5195L39.2615 41.1185M29.7535 33.8665L29.5255 34.5555C29.8625 34.6655 30.1995 34.7885 30.5255 34.9185L30.7935 34.2455C30.4505 34.1095 30.1025 33.9815 29.7535 33.8665M32.7965 35.1865C32.4735 35.0105 32.1405 34.8425 31.8085 34.6865L31.5015 35.3425C31.8185 35.4925 32.1375 35.6535 32.4495 35.8235L32.7965 35.1865M33.7515 35.7465L33.3685 36.3615C33.6665 36.5495 33.9655 36.7485 34.2495 36.9525L34.6725 36.3645C34.3755 36.1515 34.0655 35.9435 33.7515 35.7465M40.1985 44.3725C40.3375 44.6995 40.4675 45.0335 40.5865 45.3625L41.2695 45.1195C41.1475 44.7755 41.0095 44.4275 40.8645 44.0865L40.1985 44.3725M36.3905 37.7585C36.1185 37.5095 35.8355 37.2655 35.5535 37.0355L35.0965 37.5985C35.3685 37.8195 35.6395 38.0535 35.8995 38.2925L36.3905 37.7585M39.8435 42.0575L39.2185 42.4255 39.2455 42.4695C39.4215 42.7755 39.5925 43.0915 39.7505 43.4075L40.3975 43.0825C40.2335 42.7535 40.0565 42.4255 39.8745 42.1095L39.8435 42.0575M9.7555 39.7025L10.3175 40.1615C10.5425 39.8855 10.7745 39.6135 11.0135 39.3575L10.4805 38.8655C10.2315 39.1335 9.9885 39.4155 9.7555 39.7025M28.6905 33.5505C28.3375 33.4565 27.9765 33.3715 27.6125 33.2985L27.4695 34.0095C27.8175 34.0795 28.1665 34.1605 28.5045 34.2505L28.6905 33.5505M41.5935 50.5655C41.6045 50.7975 41.6085 51.0295 41.6085 51.2605 41.6085 51.3835 41.6065 51.5065 41.6045 51.6295L42.3295 51.6445C42.3325 51.5155 42.3335 51.3895 42.3335 51.2605 42.3335 51.0205 42.3275 50.7775 42.3185 50.5365L41.5935 50.5655M37.9285 39.3515C37.6865 39.0715 37.4385 38.7955 37.1825 38.5315L36.6615 39.0355C36.9065 39.2885 37.1465 39.5525 37.3755 39.8225L37.9285 39.3515M40.9135 46.3745C41.0105 46.7125 41.1005 47.0585 41.1785 47.4055L41.8865 47.2455C41.8065 46.8845 41.7125 46.5245 41.6085 46.1725L40.9135 46.3745M36.7075 64.5005L36.2025 63.9775C35.9515 64.2205 35.6845 64.4605 35.4145 64.6905L35.8835 65.2425C36.1655 65.0035 36.4415 64.7535 36.7075 64.5005M41.3815 48.4495C41.4375 48.7975 41.4855 49.1515 41.5205 49.5035L42.2415 49.4315C42.2045 49.0655 42.1565 48.6955 42.0975 48.3325L41.3815 48.4495M38.2065 62.8735L37.6425 62.4155C37.4185 62.6915 37.1845 62.9615 36.9475 63.2195L37.4805 63.7105C37.7265 63.4425 37.9705 63.1625 38.2065 62.8735M25.8495 69.5285C26.2155 69.4915 26.5845 69.4425 26.9475 69.3835L26.8305 68.6685C26.4825 68.7255 26.1265 68.7715 25.7765 68.8075L25.8495 69.5285M23.6515 68.8925L23.6365 69.6185C23.7595 69.6205 23.8825 69.6215 24.0075 69.6215 24.2515 69.6215 24.4995 69.6165 24.7455 69.6065L24.7155 68.8825C24.3605 68.8965 24.0045 68.9005 23.6515 68.8925M22.5295 69.5615L22.5885 68.8395C22.2365 68.8105 21.8805 68.7715 21.5315 68.7225L21.4285 69.4395C21.7915 69.4915 22.1635 69.5325 22.5295 69.5615M28.0345 69.1725C28.1525 69.1455 28.2685 69.1105 28.3855 69.0815 28.4355 69.1875 28.4865 69.2925 28.5485 69.3965 29.5485 71.1305 31.7645 71.7235 33.4985 70.7235 35.1605 69.7645 35.7715 67.6875 34.9385 65.9915 34.9625 65.9715 34.9925 65.9545 35.0185 65.9345L34.5855 65.3545C34.5745 65.3615 34.5645 65.3675 34.5555 65.3745 33.4645 63.9555 31.4675 63.5255 29.8745 64.4455 28.4625 65.2605 27.8065 66.8825 28.1525 68.3925 28.0595 68.4155 27.9685 68.4445 27.8755 68.4645L28.0345 69.1725M16.1445 67.8575L16.4555 67.2025C16.1325 67.0505 15.8145 66.8885 15.5065 66.7195L15.1575 67.3555C15.4785 67.5315 15.8105 67.7005 16.1445 67.8575M16.7615 34.4195L17.0465 35.0855C17.3695 34.9465 17.7025 34.8155 18.0385 34.6945L17.7915 34.0125C17.4415 34.1385 17.0965 34.2755 16.7615 34.4195M18.8435 33.6685L19.0485 34.3645C19.3835 34.2665 19.7315 34.1755 20.0765 34.0965L19.9155 33.3905C19.5555 33.4735 19.1935 33.5665 18.8435 33.6685M8.4665 41.5035L9.0805 41.8885C9.2675 41.5905 9.4665 41.2925 9.6715 41.0055L9.0835 40.5835C8.8695 40.8835 8.6595 41.1925 8.4665 41.5035M13.3745 37.2175C13.6525 37.0065 13.9455 36.7995 14.2425 36.6035L13.8425 35.9985C13.5325 36.2035 13.2295 36.4195 12.9375 36.6385L13.3745 37.2175M11.7555 38.5965C12.0125 38.3485 12.2775 38.1095 12.5435 37.8825L12.0735 37.3305C11.7965 37.5665 11.5205 37.8165 11.2535 38.0735L11.7555 38.5965M14.7855 35.4125L15.1435 36.0435 15.1815 36.0215C15.4755 35.8525 15.7785 35.6885 16.0835 35.5355L15.7565 34.8875C15.4395 35.0475 15.1245 35.2175 14.8145 35.3965L14.7855 35.4125M24.3005 33.6625L24.3155 32.9375C24.2005 32.9355 24.0865 32.9345 23.9735 32.9345 23.7185 32.9375 23.4615 32.9395 23.2065 32.9505L23.2365 33.6745C23.4745 33.6645 23.7125 33.6595 23.9485 33.6595 24.0685 33.6615 24.1835 33.6595 24.3005 33.6625"/>
    <path d="M63.0945 6.3655C66.8055 4.2235 71.0225 3.0905 75.2815 3.0905 83.1225 3.0905 90.4775 6.8815 95.0415 13.1315 94.5415 13.2885 94.0485 13.4965 93.5755 13.7685 92.5085 14.3855 91.6585 15.2335 91.0495 16.2105 90.9835 16.1175 90.9195 16.0195 90.8525 15.9265L90.5605 16.1435C90.6615 16.2795 90.7555 16.4215 90.8535 16.5615 89.6755 18.7085 89.6085 21.3975 90.9225 23.6725 91.7295 25.0715 92.9365 26.0915 94.3125 26.6875 94.3225 26.9045 94.3345 27.1215 94.3375 27.3355L94.6985 27.3325C94.6975 27.1705 94.6855 27.0075 94.6815 26.8445 96.2765 27.4345 98.0685 27.4545 99.7315 26.8325 99.7925 29.1335 99.5275 31.4545 98.9255 33.7415L99.0135 33.1125C98.6515 33.0615 98.2805 33.0215 97.9125 32.9915L97.8555 33.7145C98.2065 33.7425 98.5595 33.7805 98.9015 33.8295 98.9015 33.8325 98.9015 33.8375 98.9005 33.8405 97.2105 40.1425 93.1695 45.4105 87.5205 48.6725 84.8415 50.2185 81.9015 51.2355 78.8695 51.6845 78.8665 51.5545 78.8625 51.4245 78.8625 51.2945 78.8625 51.1805 78.8625 51.0665 78.8655 50.9535L78.1405 50.9385C78.1375 51.0575 78.1375 51.1755 78.1375 51.2945 78.1375 51.4565 78.1435 51.6195 78.1465 51.7805 77.2145 51.8905 76.2735 51.9485 75.3325 51.9485 72.2465 51.9485 69.2365 51.3585 66.4405 50.2655 66.6035 49.4365 66.4835 48.5475 66.0265 47.7585 65.0245 46.0245 62.8095 45.4305 61.0755 46.4315 60.8455 46.5645 60.6365 46.7205 60.4475 46.8915 57.9345 44.9675 55.7815 42.5505 54.1555 39.7325 52.3665 36.6345 51.3425 33.3035 51.0135 29.9555 51.1015 29.9135 51.1905 29.8705 51.2785 29.8205 53.0105 28.8185 53.6055 26.6015 52.6035 24.8695 52.2635 24.2785 51.7805 23.8245 51.2245 23.5165 51.7735 20.2345 52.9885 17.0805 54.8045 14.2605 54.8365 14.2695 54.8665 14.2815 54.8985 14.2905L54.9845 13.9815C57.0025 10.9435 59.7265 8.3095 63.0945 6.3655zM100.6095 5.7325C102.2345 4.7935 104.0805 4.2985 105.9455 4.2985 109.7595 4.2985 113.3105 6.3475 115.2155 9.6465 118.1645 14.7525 116.4075 21.3055 111.3015 24.2525 109.6755 25.1915 107.8305 25.6875 105.9665 25.6875 104.7395 25.6875 103.5415 25.4735 102.4165 25.0755 104.6045 22.8085 105.1335 19.2875 103.4785 16.4235 102.5245 14.7725 101.0195 13.6465 99.3325 13.1265 99.3925 12.9115 99.4615 12.6965 99.5425 12.4895L98.8655 12.2265C98.7745 12.4615 98.6985 12.7035 98.6295 12.9485 97.7055 12.7615 96.7435 12.7535 95.7975 12.9405 95.7135 12.8235 95.6305 12.7075 95.5445 12.5925 96.1885 9.8015 97.9385 7.2735 100.6095 5.7325zM54.7135 13.0935C54.5355 13.0365 54.3555 12.9855 54.1775 12.9245L53.8205 13.9515C53.9095 13.9815 54.0005 14.0065 54.0865 14.0355 52.3095 16.8445 51.1065 19.9735 50.5415 23.2245 49.6085 22.9345 48.5645 23.0155 47.6525 23.5425 45.9185 24.5435 45.3255 26.7605 46.3255 28.4935 47.1485 29.9165 48.7885 30.5695 50.3085 30.2045 50.6675 33.5915 51.7155 36.9585 53.5275 40.0945 55.1925 42.9785 57.3935 45.4555 59.9625 47.4315 59.1425 48.5555 59.0095 50.1005 59.7485 51.3825 60.7495 53.1165 62.9655 53.7095 64.6995 52.7095 65.2415 52.3965 65.6705 51.9655 65.9755 51.4685 66.3075 51.5825 66.6375 51.7085 66.9595 51.8415L67.1805 51.3105C67.5305 51.4305 67.8815 51.5405 68.2375 51.6455L67.9305 52.2775C68.2525 52.4325 68.5705 52.5985 68.8755 52.7695L69.3395 51.9435C71.2785 52.4205 73.2885 52.6735 75.3325 52.6735 79.7205 52.6735 84.0595 51.5065 87.8835 49.3005 93.7005 45.9415 97.8625 40.5175 99.6005 34.0285 100.2665 31.5435 100.5425 29.0175 100.4465 26.5185 100.5725 26.4555 100.7015 26.3975 100.8245 26.3255 101.3065 26.0475 101.7405 25.7185 102.1305 25.3545 103.3435 25.8045 104.6385 26.0505 105.9665 26.0505 107.8955 26.0505 109.8035 25.5365 111.4835 24.5665 116.7625 21.5185 118.5765 14.7445 115.5305 9.4655 113.5615 6.0545 109.8885 3.9355 105.9455 3.9355 104.0175 3.9355 102.1085 4.4485 100.4275 5.4185 97.7625 6.9575 95.9825 9.4475 95.2625 12.2145 91.0835 6.7765 84.8125 3.2515 77.9695 2.5125 78.0705 2.2405 78.1685 1.9685 78.2545 1.6925L77.2195 1.3665C77.1105 1.7035 76.9935 2.0415 76.8685 2.3715L77.0115 2.4255C76.4375 2.3855 75.8615 2.3645 75.2815 2.3645 70.8945 2.3645 66.5535 3.5315 62.7315 5.7385 59.4465 7.6355 56.7535 10.1695 54.7135 13.0935L54.7135 13.0935zM26.8395 13.1265C26.9015 12.9115 26.9685 12.6965 27.0485 12.4895L26.3735 12.2265C26.2815 12.4615 26.2075 12.7035 26.1395 12.9485 25.2135 12.7615 24.2515 12.7535 23.3075 12.9405 23.2235 12.8235 23.1375 12.7075 23.0525 12.5925 23.6965 9.8015 25.4485 7.2735 28.1185 5.7325 29.7435 4.7935 31.5885 4.2985 33.4535 4.2985 37.2665 4.2985 40.8195 6.3475 42.7265 9.6465 45.6725 14.7525 43.9165 21.3055 38.8115 24.2525 37.1865 25.1915 35.3395 25.6875 33.4755 25.6875 32.2495 25.6875 31.0495 25.4735 29.9255 25.0755 32.1125 22.8085 32.6405 19.2875 30.9865 16.4235 30.0335 14.7725 28.5295 13.6465 26.8395 13.1265zM15.3905 49.3005C21.2085 45.9415 25.3695 40.5175 27.1085 34.0285 27.7735 31.5435 28.0525 29.0175 27.9555 26.5185 28.0815 26.4555 28.2095 26.3975 28.3335 26.3255 28.8155 26.0475 29.2485 25.7185 29.6395 25.3545 30.8525 25.8045 32.1455 26.0505 33.4755 26.0505 35.4035 26.0505 37.3125 25.5365 38.9915 24.5665 44.2715 21.5185 46.0865 14.7445 43.0395 9.4655 41.0685 6.0545 37.3975 3.9355 33.4535 3.9355 31.5245 3.9355 29.6175 4.4485 27.9365 5.4185 25.2715 6.9575 23.4905 9.4475 22.7715 12.2145 18.5915 6.7765 12.3195 3.2515 5.4795 2.5125 5.5775 2.2405 5.6765 1.9685 5.7645 1.6925L4.7265 1.3665C4.6215 1.7035 4.5025 2.0415 4.3765 2.3715L4.5185 2.4255C3.9445 2.3855 3.3705 2.3645 2.7925 2.3645 2.0055 2.3645 1.2225 2.4045.4415 2.4785L.4415 3.2055C1.2225 3.1295 2.0055 3.0905 2.7925 3.0905 10.6295 3.0905 17.9855 6.8815 22.5505 13.1315 22.0495 13.2885 21.5575 13.4965 21.0845 13.7685 20.0165 14.3855 19.1665 15.2335 18.5595 16.2105 18.4925 16.1175 18.4295 16.0195 18.3605 15.9265L18.0685 16.1435C18.1695 16.2795 18.2635 16.4215 18.3615 16.5615 17.1845 18.7085 17.1175 21.3975 18.4305 23.6725 19.2375 25.0715 20.4445 26.0915 21.8205 26.6875 21.8295 26.9045 21.8425 27.1215 21.8455 27.3355L22.2075 27.3325C22.2065 27.1705 22.1945 27.0075 22.1895 26.8445 23.7845 27.4345 25.5755 27.4545 27.2405 26.8325 27.3025 29.1335 27.0375 31.4545 26.4345 33.7415L26.5215 33.1125C26.1605 33.0615 25.7895 33.0215 25.4205 32.9915L25.3615 33.7145C25.7145 33.7425 26.0675 33.7805 26.4125 33.8295 26.4105 33.8325 26.4095 33.8375 26.4095 33.8405 24.7205 40.1425 20.6785 45.4105 15.0285 48.6725 12.3515 50.2185 9.4095 51.2355 6.3785 51.6845 6.3765 51.5545 6.3715 51.4245 6.3715 51.2945 6.3715 51.1805 6.3715 51.0665 6.3745 50.9535L5.6485 50.9385C5.6465 51.0575 5.6465 51.1755 5.6465 51.2945 5.6465 51.4565 5.6515 51.6195 5.6565 51.7805 4.7225 51.8905 3.7835 51.9485 2.8405 51.9485 2.0345 51.9485 1.2335 51.9075.4415 51.8295L.4415 52.5575C1.2355 52.6335 2.0345 52.6735 2.8405 52.6735 7.2295 52.6735 11.5695 51.5065 15.3905 49.3005L15.3905 49.3005z"/>
    <path d="M61.4285 40.5385L61.1635 40.7875C61.4155 41.0565 61.6785 41.3205 61.9435 41.5725L62.1925 41.3095C61.9335 41.0625 61.6755 40.8035 61.4285 40.5385M62.7655 42.3115C63.0465 42.5505 63.3375 42.7825 63.6305 43.0025L63.8505 42.7125C63.5625 42.4965 63.2765 42.2685 63.0015 42.0355L62.7655 42.3115M65.7955 11.0415C65.9405 10.9585 66.0855 10.8765 66.2305 10.7975L66.0575 10.4785C65.9095 10.5595 65.7605 10.6425 65.6125 10.7275 65.4395 10.8275 65.2685 10.9305 65.0995 11.0345L65.2905 11.3435C65.4555 11.2405 65.6245 11.1405 65.7955 11.0415M58.5315 37.2385C58.7165 37.5565 58.9115 37.8735 59.1115 38.1805L59.4165 37.9815C59.2165 37.6805 59.0265 37.3695 58.8455 37.0575L58.5315 37.2385M64.3835 11.9405L64.1755 11.6425C63.8745 11.8545 63.5735 12.0765 63.2865 12.3035L63.5125 12.5875C63.7935 12.3655 64.0875 12.1475 64.3835 11.9405M70.5755 46.3205C70.9325 46.4115 71.2965 46.4925 71.6555 46.5605L71.7245 46.2045C71.3725 46.1375 71.0145 46.0575 70.6645 45.9695L70.5755 46.3205M60.4375 15.6425C60.6155 15.4185 60.8045 15.2005 60.9945 14.9835 61.1995 14.9735 61.4035 14.9685 61.6055 14.9525L61.5195 13.8685C61.1675 13.8965 60.8095 13.9135 60.4575 13.9215L60.4785 15.0085C60.4835 15.0085 60.4925 15.0075 60.5005 15.0075 60.3845 15.1445 60.2655 15.2785 60.1545 15.4165L60.4375 15.6425M72.7485 46.7385C73.1125 46.7875 73.4815 46.8265 73.8495 46.8535L73.8775 46.4925C73.5175 46.4655 73.1525 46.4275 72.7965 46.3795L72.7485 46.7385M56.9945 22.3645L56.6455 22.2655C56.5455 22.6205 56.4535 22.9815 56.3765 23.3395L56.7295 23.4175C56.8055 23.0665 56.8975 22.7115 56.9945 22.3645M65.6545 43.9175C65.3425 43.7345 65.0325 43.5405 64.7335 43.3415L64.5335 43.6425C64.8375 43.8465 65.1525 44.0435 65.4715 44.2305L65.6545 43.9175M56.0215 25.5235L56.3815 25.5615C56.4185 25.2045 56.4665 24.8435 56.5255 24.4855L56.1665 24.4265C56.1075 24.7915 56.0585 25.1605 56.0215 25.5235M56.3215 28.8175L55.9605 28.8415C55.9845 29.2085 56.0205 29.5805 56.0655 29.9435L56.4255 29.8985C56.3815 29.5415 56.3465 29.1775 56.3215 28.8175M62.6785 13.2835L62.4385 13.0135C62.1635 13.2565 61.8895 13.5115 61.6305 13.7685L61.8855 14.0265C62.1415 13.7725 62.4065 13.5235 62.6785 13.2835M57.5315 35.2645C57.6795 35.6005 57.8375 35.9375 58.0025 36.2655L58.3285 36.1015C58.1645 35.7795 58.0075 35.4485 57.8625 35.1195L57.5315 35.2645M67.5865 44.9095C67.2565 44.7625 66.9275 44.6055 66.6065 44.4405L66.4405 44.7635C66.7675 44.9305 67.1045 45.0915 67.4395 45.2405L67.5865 44.9095M60.4315 39.9575L60.7095 39.7255C60.4795 39.4495 60.2525 39.1625 60.0375 38.8715L59.7455 39.0875C59.9655 39.3835 60.1965 39.6765 60.4315 39.9575M68.1955 9.8695L68.0595 9.5335C67.7175 9.6715 67.3785 9.8205 67.0445 9.9775L67.1995 10.3055C67.5245 10.1515 67.8605 10.0045 68.1955 9.8695M56.5915 30.9715L56.2355 31.0375C56.3015 31.3975 56.3805 31.7625 56.4685 32.1205L56.8215 32.0335C56.7345 31.6835 56.6585 31.3255 56.5915 30.9715M69.6175 45.6745C69.2795 45.5685 68.9325 45.4485 68.5905 45.3215L68.4635 45.6595C68.8125 45.7905 69.1635 45.9115 69.5095 46.0205L69.6175 45.6745M72.3765 8.7155L72.3195 8.3575C71.9575 8.4135 71.5915 8.4815 71.2315 8.5585L71.3075 8.9135C71.6605 8.8375 72.0195 8.7705 72.3765 8.7155M70.2515 9.1725L70.1565 8.8225C69.7985 8.9215 69.4435 9.0305 69.0975 9.1475L69.2145 9.4915C69.5545 9.3755 69.9025 9.2685 70.2515 9.1725M73.4525 8.5795C73.7615 8.5485 74.0755 8.5305 74.3875 8.5155L74.4065 8.5315C74.4125 8.5255 74.4165 8.5185 74.4225 8.5135 74.4615 8.5115 74.4985 8.5065 74.5385 8.5055L74.5325 8.3785C74.7345 8.1435 74.9365 7.9055 75.1255 7.6615L74.2675 6.9945C74.0505 7.2725 73.8215 7.5485 73.5885 7.8135L74.0035 8.1785C73.8085 8.1905 73.6125 8.2005 73.4185 8.2185L73.4525 8.5795M56.7615 33.1875C56.8695 33.5385 56.9895 33.8915 57.1185 34.2375L57.4565 34.1105C57.3325 33.7715 57.2135 33.4255 57.1075 33.0815L56.7615 33.1875M58.6345 18.3505L58.3145 18.1765C58.1375 18.4985 57.9695 18.8295 57.8115 19.1615L58.1375 19.3165C58.2935 18.9925 58.4605 18.6665 58.6345 18.3505M59.1835 17.4135C59.3735 17.1075 59.5775 16.8035 59.7855 16.5095L59.4875 16.2995C59.2765 16.5985 59.0705 16.9095 58.8765 17.2215L59.1835 17.4135M56.2795 27.7315L56.2795 27.5365C56.2795 27.2385 56.2855 26.9415 56.2995 26.6455L55.9385 26.6285C55.9235 26.9305 55.9165 27.2335 55.9165 27.5365L55.9175 27.7355 56.2795 27.7315M57.3175 21.3275C57.4335 20.9875 57.5635 20.6455 57.6995 20.3095L57.3645 20.1735C57.2235 20.5145 57.0935 20.8635 56.9755 21.2085L57.3175 21.3275M2.4715 46.5445L2.4635 46.9065C2.5885 46.9105 2.7115 46.9105 2.8345 46.9105 3.0795 46.9105 3.3245 46.9065 3.5705 46.8975L3.5585 46.5355C3.1945 46.5485 2.8335 46.5525 2.4715 46.5445M19.2335 37.8415C19.4265 37.5325 19.6165 37.2105 19.7935 36.8885L19.4765 36.7135C19.3025 37.0295 19.1175 37.3455 18.9255 37.6485L19.2335 37.8415M12.6265 10.7925C12.3105 10.6075 11.9845 10.4295 11.6565 10.2615L11.4905 10.5835C11.8135 10.7485 12.1335 10.9245 12.4435 11.1055L12.6265 10.7925M20.7505 34.8925L20.4135 34.7555C20.2755 35.0885 20.1275 35.4225 19.9725 35.7465L20.2995 35.9035C20.4595 35.5735 20.6095 35.2325 20.7505 34.8925M12.9975 44.0185C13.3095 43.8275 13.6235 43.6215 13.9245 43.4125L13.7155 43.1145C13.4205 43.3215 13.1165 43.5215 12.8085 43.7105L12.9975 44.0185M14.4705 12.0175C14.1775 11.7985 13.8735 11.5825 13.5665 11.3795L13.3655 11.6805C13.6675 11.8815 13.9655 12.0925 14.2515 12.3075L14.4705 12.0175M16.4715 41.2895C16.7315 41.0315 16.9915 40.7615 17.2355 40.4885L16.9665 40.2465C16.7245 40.5135 16.4725 40.7775 16.2165 41.0325L16.4715 41.2895M16.9385 14.2295L16.6765 14.4765C16.9225 14.7405 17.1655 15.0145 17.3975 15.2905L17.6735 15.0575C17.4385 14.7755 17.1905 14.4975 16.9385 14.2295M14.8125 42.7525C15.1025 42.5265 15.3875 42.2885 15.6635 42.0445L15.4245 41.7725C15.1535 42.0115 14.8735 42.2455 14.5895 42.4685L14.8125 42.7525M16.1595 13.4455C15.8915 13.1915 15.6135 12.9435 15.3355 12.7075L15.1005 12.9845C15.3765 13.2155 15.6465 13.4595 15.9085 13.7085L16.1595 13.4455M8.9985 45.8995C9.3485 45.7815 9.6965 45.6525 10.0385 45.5155L9.9015 45.1795C9.5675 45.3135 9.2265 45.4405 8.8825 45.5565L8.9985 45.8995M21.3885 31.6485L21.7435 31.7275C21.8225 31.3675 21.8925 31.0015 21.9525 30.6405L21.5935 30.5825C21.5365 30.9365 21.4675 31.2945 21.3885 31.6485M22.1855 28.4395L21.8225 28.4225C21.8065 28.7815 21.7765 29.1465 21.7405 29.5045L22.0995 29.5435C22.1385 29.1775 22.1685 28.8065 22.1855 28.4395M4.6415 46.4615L4.6755 46.8225C5.0415 46.7875 5.4105 46.7425 5.7735 46.6855L5.7205 46.3275C5.3615 46.3835 5.0005 46.4285 4.6415 46.4615M11.0515 45.0725C11.3835 44.9165 11.7165 44.7485 12.0405 44.5735L11.8675 44.2545C11.5495 44.4265 11.2225 44.5915 10.8975 44.7445L11.0515 45.0725M18.6185 38.7625L18.3225 38.5525C18.1145 38.8455 17.8945 39.1365 17.6685 39.4185L17.9515 39.6455C18.1815 39.3575 18.4075 39.0595 18.6185 38.7625M1.3855 46.4925C1.0715 46.4695.7545 46.4335.4415 46.3935L.4415 46.7575C.7465 46.7965 1.0535 46.8305 1.3585 46.8535L1.3855 46.4925M5.2975 8.6555C5.6535 8.7025 6.0155 8.7615 6.3715 8.8285L6.4385 8.4725C6.0765 8.4035 5.7075 8.3445 5.3455 8.2965L5.2975 8.6555M7.8425 45.8735C7.4925 45.9705 7.1385 46.0565 6.7865 46.1305L6.8635 46.4855C7.2205 46.4095 7.5825 46.3215 7.9395 46.2235L7.8425 45.8735M9.5035 9.7075C9.8405 9.8335 10.1805 9.9725 10.5105 10.1175L10.6575 9.7865C10.3205 9.6375 9.9765 9.4965 9.6325 9.3685L9.5035 9.7075M3.1335 8.4935C3.4915 8.4985 3.8565 8.5165 4.2185 8.5435L4.2445 8.1825C3.8755 8.1545 3.5055 8.1365 3.1395 8.1315L3.1335 8.4935M.9625 8.5795C1.2705 8.5485 1.5855 8.5305 1.8975 8.5155L1.9145 8.5315C1.9195 8.5255 1.9245 8.5185 1.9305 8.5135 1.9685 8.5115 2.0065 8.5065 2.0455 8.5055L2.0405 8.3785C2.2445 8.1435 2.4445 7.9055 2.6355 7.6615L1.7765 6.9945C1.5605 7.2725 1.3325 7.5485 1.0975 7.8135L1.5135 8.1785C1.3175 8.1905 1.1195 8.2005.9275 8.2185L.9625 8.5795M20.7955 33.7385L21.1135 33.8485 21.1205 33.8925C21.4675 33.8345 21.8235 33.7875 22.1755 33.7515L22.1025 33.0305C21.8565 33.0565 21.6125 33.0935 21.3685 33.1285 21.4015 33.0175 21.4395 32.9105 21.4705 32.8005L21.1245 32.7025C21.0255 33.0495 20.9145 33.3975 20.7955 33.7385M7.5895 8.7295C7.5665 8.7245 7.5425 8.7165 7.5195 8.7105L7.5145 8.7315C7.2495 8.7515 6.9865 8.8225 6.7435 8.9635 5.8745 9.4645 5.5775 10.5725 6.0795 11.4395 6.5775 12.3065 7.6875 12.6025 8.5545 12.1025 9.4215 11.6015 9.7175 10.4935 9.2195 9.6265 8.8725 9.0275 8.2355 8.7095 7.5895 8.7295"/>
  </g>
</svg>
